<svg width="100" height="100" viewBox="0 0 100 100" fill="none" xmlns="http://www.w3.org/2000/svg">
<path d="M50 10C27.9094 10 10 27.9031 10 50C10 72.0968 27.9094 90 50 90C72.0906 90 90 72.0859 90 50C90 27.9141 72.0906 10 50 10Z" fill="#FF5C5C"/>
<path d="M10 50C9.99101 56.6117 11.6283 63.1215 14.7641 68.9422C18.7592 70.1152 22.9019 70.7093 27.0657 70.7063C51.1125 70.7063 70.6063 51.2125 70.6063 27.1657C70.6098 22.9359 69.9972 18.7282 68.7875 14.6751C63.0049 11.5949 56.5517 9.98914 50 10.0001C27.9094 10.0001 10 27.9032 10 50Z" fill="#FF8080"/>
<path fill-rule="evenodd" clip-rule="evenodd" d="M66.8503 58.1258C66.6799 60.9107 66.5446 63.1206 66.2674 64.8859C65.9831 66.6963 65.5279 68.2039 64.6176 69.5225C63.7847 70.729 62.7124 71.7472 61.4688 72.5123C60.1095 73.3487 58.5916 73.7145 56.7851 73.8894L43.1724 73.8891C41.3637 73.7138 39.8442 73.3474 38.4839 72.5094C37.2396 71.7429 36.1669 70.7229 35.3343 69.5145C34.4242 68.1937 33.9705 66.6838 33.6883 64.8709C33.4131 63.1031 33.2809 60.8901 33.1142 58.1013L31.667 33.8894H68.3337L66.8503 58.1258ZM44.4448 63.247C43.5243 63.247 42.7781 62.5009 42.7781 61.5804L42.7781 48.247C42.7781 47.3266 43.5243 46.5804 44.4448 46.5804C45.3653 46.5804 46.1115 47.3266 46.1115 48.247L46.1115 61.5804C46.1115 62.5009 45.3653 63.247 44.4448 63.247ZM57.2226 48.247C57.2226 47.3266 56.4764 46.5804 55.5559 46.5804C54.6355 46.5804 53.8893 47.3266 53.8893 48.247V61.5804C53.8893 62.5009 54.6355 63.247 55.5559 63.247C56.4764 63.247 57.2226 62.5009 57.2226 61.5804V48.247Z" fill="white"/>
<path fill-rule="evenodd" clip-rule="evenodd" d="M52.9944 26.1844C54.2501 26.2967 55.4304 26.6799 56.4439 27.4358C57.1934 27.9949 57.7142 28.6792 58.1591 29.4203C58.5713 30.1071 58.9863 30.9633 59.4571 31.9347L60.4054 33.8909H70.0004C71.2277 33.8909 72.2226 34.8858 72.2226 36.1131C72.2226 37.3404 71.2277 38.3354 70.0004 38.3354C56.6665 38.3354 43.3341 38.3354 30.0004 38.3354C28.7731 38.3354 27.7782 37.3404 27.7782 36.1131C27.7782 34.8858 28.7731 33.8909 30.0004 33.8909H39.7999L40.5905 32.1564C41.0495 31.1493 41.4538 30.2623 41.8599 29.5506C42.2979 28.7828 42.8164 28.0724 43.5751 27.4904C44.6011 26.7033 45.8051 26.3042 47.0891 26.1873C48.0558 26.0993 49.0302 26.1114 50.0004 26.113C51.1355 26.1148 52.1559 26.1094 52.9944 26.1844ZM44.6843 33.8909H55.4663C54.9627 32.8523 54.6403 32.1939 54.3484 31.7076C53.9211 30.9957 53.4091 30.6837 52.5984 30.6112C52.0222 30.5596 51.2713 30.5576 50.0771 30.5576C48.8531 30.5576 48.0825 30.5597 47.492 30.6135C46.6607 30.6891 46.1424 31.0131 45.7202 31.753C45.4435 32.238 45.1423 32.8871 44.6843 33.8909Z" fill="white"/>
</svg>
