<svg width="250" height="187" viewBox="0 0 250 187" fill="none" xmlns="http://www.w3.org/2000/svg">
<path d="M250 163.7H0V163.825H250V163.7Z" fill="#EBEBEB"/>
<path d="M44.75 167.105H26.23V167.23H44.75V167.105Z" fill="#EBEBEB"/>
<path d="M120 169.81H84.5V169.935H120V169.81Z" fill="#EBEBEB"/>
<path d="M72.835 167.165H47.46V167.29H72.835V167.165Z" fill="#EBEBEB"/>
<path d="M227.725 170.905H203.39V171.03H227.725V170.905Z" fill="#EBEBEB"/>
<path d="M201.165 170.905H185.18V171.03H201.165V170.905Z" fill="#EBEBEB"/>
<path d="M169.61 168.795H138.605V168.92H169.61V168.795Z" fill="#EBEBEB"/>
<path d="M118.5 141.4H21.955C21.1987 141.399 20.4738 141.097 19.9394 140.562C19.4051 140.027 19.105 139.301 19.105 138.545V2.83C19.1116 2.07801 19.4146 1.35899 19.9482 0.829109C20.4818 0.299229 21.203 0.00128819 21.955 0H118.5C119.257 0 119.983 0.300794 120.519 0.83621C121.054 1.37163 121.355 2.09781 121.355 2.855V138.545C121.355 139.302 121.054 140.028 120.519 140.564C119.983 141.099 119.257 141.4 118.5 141.4ZM21.955 0.1C21.2318 0.101325 20.5387 0.389533 20.0278 0.901363C19.5169 1.41319 19.23 2.10682 19.23 2.83V138.545C19.23 139.268 19.5169 139.962 20.0278 140.474C20.5387 140.985 21.2318 141.274 21.955 141.275H118.5C119.224 141.274 119.917 140.986 120.429 140.474C120.941 139.962 121.229 139.269 121.23 138.545V2.83C121.229 2.10636 120.941 1.41275 120.429 0.901058C119.917 0.38937 119.224 0.101322 118.5 0.1H21.955Z" fill="#EBEBEB"/>
<path d="M226.655 141.4H130.105C129.348 141.399 128.623 141.097 128.088 140.562C127.553 140.027 127.251 139.302 127.25 138.545V2.83C127.258 2.07756 127.562 1.35854 128.096 0.828796C128.631 0.299054 129.353 0.00127414 130.105 0H226.655C227.406 0.00260225 228.126 0.301125 228.659 0.830864C229.191 1.3606 229.493 2.07888 229.5 2.83V138.545C229.5 139.3 229.201 140.025 228.667 140.56C228.134 141.095 227.411 141.397 226.655 141.4ZM130.105 0.1C129.381 0.101322 128.688 0.38937 128.176 0.901058C127.664 1.41275 127.376 2.10636 127.375 2.83V138.545C127.376 139.269 127.664 139.962 128.176 140.474C128.688 140.986 129.381 141.274 130.105 141.275H226.655C227.379 141.274 228.072 140.986 228.584 140.474C229.096 139.962 229.384 139.269 229.385 138.545V2.83C229.384 2.10636 229.096 1.41275 228.584 0.901058C228.072 0.38937 227.379 0.101322 226.655 0.1H130.105Z" fill="#EBEBEB"/>
<path d="M217.81 162.16H178.81C176.991 162.16 175.246 161.437 173.959 160.151C172.673 158.864 171.95 157.119 171.95 155.3V120.26C171.95 118.441 172.673 116.696 173.959 115.409C175.246 114.123 176.991 113.4 178.81 113.4H217.81V162.16Z" fill="#F0F0F0"/>
<path d="M217.49 162.16H218.135C221.924 162.16 224.995 159.089 224.995 155.3V120.26C224.995 116.471 221.924 113.4 218.135 113.4H217.49C213.701 113.4 210.63 116.471 210.63 120.26V155.3C210.63 159.089 213.701 162.16 217.49 162.16Z" fill="#F5F5F5"/>
<path d="M212.585 131.385H127.125V162.16H212.585V131.385Z" fill="#F0F0F0"/>
<path d="M216.77 163.7H90.46C90.2751 163.701 90.0919 163.665 89.9208 163.594C89.7498 163.524 89.5943 163.421 89.4633 163.29C89.3323 163.16 89.2284 163.005 89.1575 162.834C89.0866 162.663 89.05 162.48 89.05 162.295V162.16H178.78L218.175 162.295C218.175 162.668 218.027 163.025 217.764 163.288C217.5 163.552 217.143 163.7 216.77 163.7Z" fill="#E0E0E0"/>
<path d="M98.62 93.1699H180.54C183.077 93.1699 185.51 94.1777 187.304 95.9715C189.097 97.7652 190.105 100.198 190.105 102.735V138.34H89.05V102.735C89.05 100.198 90.0578 97.7652 91.8516 95.9715C93.6454 94.1777 96.0782 93.1699 98.615 93.1699H98.62Z" fill="#E0E0E0"/>
<path d="M105.18 93.1699H188C190.415 93.1699 192.731 94.1292 194.438 95.8367C196.146 97.5442 197.105 99.8601 197.105 102.275V138.345H96.075V102.275C96.075 99.8601 97.0343 97.5442 98.7418 95.8367C100.449 94.1292 102.765 93.1699 105.18 93.1699Z" fill="#F5F5F5"/>
<path d="M208.5 128.575H133.63C132.484 128.575 131.385 129.03 130.575 129.84C129.765 130.651 129.31 131.749 129.31 132.895V136.79C129.31 137.936 129.765 139.035 130.575 139.845C131.385 140.655 132.484 141.11 133.63 141.11H208.5C209.323 141.11 210.138 140.948 210.899 140.633C211.659 140.318 212.35 139.856 212.932 139.273C213.514 138.691 213.975 138 214.289 137.239C214.604 136.479 214.766 135.663 214.765 134.84C214.765 133.179 214.105 131.585 212.93 130.41C211.755 129.235 210.162 128.575 208.5 128.575Z" fill="#E0E0E0"/>
<path d="M126.905 162.16H87.905C86.0856 162.16 84.3407 161.437 83.0542 160.151C81.7677 158.864 81.045 157.119 81.045 155.3V120.26C81.045 118.441 81.7677 116.696 83.0542 115.409C84.3407 114.123 86.0856 113.4 87.905 113.4H126.905V162.16Z" fill="#F0F0F0"/>
<path d="M126.58 162.16H127.225C131.014 162.16 134.085 159.089 134.085 155.3V120.26C134.085 116.471 131.014 113.4 127.225 113.4H126.58C122.791 113.4 119.72 116.471 119.72 120.26V155.3C119.72 159.089 122.791 162.16 126.58 162.16Z" fill="#F5F5F5"/>
<path d="M200.53 18.76H165.215V70.69H200.53V18.76Z" fill="#E0E0E0"/>
<path d="M202.655 18.76H166.18V70.69H202.655V18.76Z" fill="#F5F5F5"/>
<path d="M169.235 22.85V66.595H199.6V22.85H169.235Z" fill="white"/>
<path d="M180.64 46.8353V50.1653C181.632 50.1653 182.615 49.9699 183.531 49.5902C184.448 49.2105 185.281 48.654 185.982 47.9525C186.684 47.2509 187.24 46.4181 187.62 45.5015C188 44.5848 188.195 43.6024 188.195 42.6103V39.2803C187.203 39.2796 186.22 39.4746 185.303 39.854C184.386 40.2335 183.553 40.7899 182.851 41.4916C182.15 42.1933 181.593 43.0264 181.214 43.9433C180.834 44.8602 180.639 45.843 180.64 46.8353Z" fill="#F5F5F5"/>
<path d="M180.64 35.6052V38.9352C182.643 38.9338 184.564 38.1374 185.981 36.7209C187.397 35.3043 188.194 33.3835 188.195 31.3802V28.0452C187.202 28.0452 186.22 28.2407 185.303 28.6207C184.386 29.0007 183.553 29.5577 182.851 30.2597C182.149 30.9618 181.593 31.7953 181.214 32.7125C180.834 33.6297 180.639 34.6126 180.64 35.6052Z" fill="#F5F5F5"/>
<path d="M180.64 58.07V61.4C182.644 61.3987 184.566 60.6016 185.982 59.184C187.399 57.7663 188.195 55.8442 188.195 53.84V50.5C187.202 50.5 186.218 50.6959 185.3 51.0765C184.383 51.4571 183.549 52.015 182.847 52.7181C182.146 53.4212 181.59 54.2559 181.211 55.1742C180.832 56.0926 180.638 57.0766 180.64 58.07Z" fill="#F5F5F5"/>
<path d="M148.08 59.4901V22.8501L32.75 22.8501V59.4901L148.08 59.4901Z" fill="#EBEBEB"/>
<path d="M32.75 59.4901V22.8501H32.055V59.4901H32.75Z" fill="#E0E0E0"/>
<path d="M142.395 28.5349H38.435V53.8049H142.395V28.5349Z" fill="#F5F5F5"/>
<path d="M63.35 53.8049H54.715L61.475 28.5349H70.11L63.35 53.8049Z" fill="white"/>
<path d="M71.3799 53.8049H66.3849L73.1449 28.5349H78.1399L71.3799 53.8049Z" fill="white"/>
<path d="M114.845 53.8049H109.85L116.61 28.5349H121.605L114.845 53.8049Z" fill="white"/>
<path d="M77.6599 121.795H49.7049L46.2449 83.8152H74.2049L77.6599 121.795Z" fill="#E6E6E6"/>
<path d="M79.1101 121.795H51.1501L47.6951 83.8152H75.6551L79.1101 121.795Z" fill="#F0F0F0"/>
<path d="M54.97 117.59L52.28 88.02H71.83L74.52 117.59H54.97Z" fill="white"/>
<path d="M98.615 121.795H94.85V163.695H98.615V121.795Z" fill="#E6E6E6"/>
<path d="M99.8 121.795H97.185V163.695H99.8V121.795Z" fill="#F5F5F5"/>
<path d="M60.88 126.42H100.61V121.795H60.88V126.42Z" fill="#F5F5F5"/>
<path d="M59.1951 126.42H55.4301V163.7H59.1951V126.42Z" fill="#E6E6E6"/>
<path d="M60.385 126.42H57.77V163.7H60.385V126.42Z" fill="#F5F5F5"/>
<path d="M35.375 126.42H31.61V163.7H35.375V126.42Z" fill="#E6E6E6"/>
<path d="M36.5651 126.42H33.9501V163.7H36.5651V126.42Z" fill="#F5F5F5"/>
<path d="M74.7949 126.42H71.0299V163.7H74.7949V126.42Z" fill="#E6E6E6"/>
<path d="M75.9801 126.42H73.3651V163.7H75.9801V126.42Z" fill="#F5F5F5"/>
<path d="M60.88 121.795H31.61V126.42H60.88V121.795Z" fill="#E6E6E6"/>
<path d="M125 186.279C178.541 186.279 221.945 183.745 221.945 180.619C221.945 177.494 178.541 174.959 125 174.959C71.4585 174.959 28.0547 177.494 28.0547 180.619C28.0547 183.745 71.4585 186.279 125 186.279Z" fill="#F5F5F5"/>
<path d="M164.18 40.4993C162.27 39.3043 156.785 40.4993 157.68 46.4993C158.575 52.4993 151.525 50.9643 153.065 57.9443C154.605 64.9243 167.1 75.2943 174.795 68.2543C182.49 61.2143 176.005 58.1093 176.15 49.7543C176.25 44.7893 174 35.8993 164.18 40.4993Z" fill="#263238"/>
<path d="M175.5 67.9545C175.464 67.9543 175.43 67.9399 175.405 67.9145C175.393 67.9028 175.383 67.8889 175.377 67.8734C175.37 67.8579 175.367 67.8413 175.367 67.8245C175.367 67.8077 175.37 67.7911 175.377 67.7756C175.383 67.7601 175.393 67.7462 175.405 67.7345C180.145 63.0245 179.05 60.1545 177.665 56.5245C176.895 54.5245 176.03 52.2445 175.955 49.2895C175.88 46.0995 174.715 41.7445 171.68 39.9495C169.53 38.6795 166.77 38.8995 163.48 40.6045C163.45 40.6188 163.416 40.6211 163.384 40.6108C163.352 40.6006 163.326 40.5787 163.31 40.5495C163.302 40.5346 163.296 40.518 163.294 40.5009C163.292 40.4837 163.294 40.4664 163.299 40.45C163.304 40.4336 163.313 40.4184 163.324 40.4054C163.336 40.3924 163.35 40.3819 163.365 40.3745C166.74 38.6245 169.58 38.4095 171.815 39.7295C174.935 41.5795 176.135 46.0295 176.215 49.2795C176.285 52.1945 177.145 54.4445 177.905 56.4295C179.32 60.1495 180.445 63.0895 175.585 67.9295C175.56 67.9472 175.53 67.956 175.5 67.9545Z" fill="#263238"/>
<path d="M176.61 67.2696C176.61 67.2696 176.69 67.3846 176.745 67.4596L176.945 67.7296C177.092 67.9163 177.247 68.1013 177.41 68.2846C177.745 68.6622 178.102 69.0195 178.48 69.3546C179.254 70.0636 180.091 70.7012 180.98 71.2596C181.883 71.8342 182.821 72.3503 183.79 72.8046C184.29 73.0496 184.79 73.2446 185.29 73.4646C185.385 73.5096 185.29 73.4646 185.225 73.5046C185.16 73.5446 185.105 73.5796 185.16 73.5496C185.405 73.3407 185.6 73.0792 185.73 72.7846C185.951 72.3439 186.14 71.8877 186.295 71.4196C186.631 70.3753 186.903 69.3117 187.11 68.2346C187.335 67.1346 187.51 66.0096 187.665 64.8746C187.82 63.7396 187.96 62.5896 188.085 61.4646H190.12C190.287 63.8558 190.268 66.2563 190.065 68.6446C189.972 69.8823 189.783 71.111 189.5 72.3196C189.348 72.976 189.141 73.6184 188.88 74.2396C188.564 75.0308 188.076 75.7414 187.45 76.3196C186.989 76.7231 186.428 76.9943 185.825 77.1046C185.228 77.2047 184.616 77.1513 184.045 76.9496C183.46 76.7396 182.865 76.5646 182.285 76.3246C181.108 75.8648 179.968 75.3149 178.875 74.6796C177.766 74.0201 176.716 73.2638 175.74 72.4196C175.245 71.9804 174.778 71.5112 174.34 71.0146C174.115 70.7646 173.895 70.5146 173.685 70.2246L173.375 69.7846C173.265 69.6196 173.19 69.5046 173.035 69.2346L176.61 67.2696Z" fill="#FFC3BD"/>
<path d="M175.925 65.4196C180.6 68.4196 180.22 70.2396 180.22 70.2396L177.28 74.4996C177.28 74.4996 169.78 71.4996 169.315 69.1446C168.825 66.6896 173.655 63.9696 175.925 65.4196Z" fill="#263238"/>
<path opacity="0.1" d="M175.925 65.4196C180.6 68.4196 180.22 70.2396 180.22 70.2396L177.28 74.4996C177.28 74.4996 169.78 71.4996 169.315 69.1446C168.825 66.6896 173.655 63.9696 175.925 65.4196Z" fill="white"/>
<path d="M180.5 69.8194C180.587 69.8808 180.646 69.9741 180.665 70.0789C180.684 70.1837 180.66 70.2916 180.6 70.3794L177.6 74.6844C177.57 74.7285 177.532 74.7662 177.488 74.7952C177.443 74.8243 177.394 74.8441 177.341 74.8534C177.289 74.8627 177.235 74.8614 177.184 74.8496C177.132 74.8377 177.083 74.8155 177.04 74.7844C176.997 74.754 176.96 74.7153 176.932 74.6707C176.904 74.626 176.885 74.5762 176.876 74.5242C176.867 74.4721 176.869 74.4188 176.88 74.3674C176.892 74.3159 176.914 74.2673 176.945 74.2244L179.945 69.9194C180.006 69.8338 180.099 69.7756 180.202 69.7569C180.306 69.7382 180.413 69.7606 180.5 69.8194Z" fill="#009593"/>
<path d="M188.415 62.4447L186.095 59.3447L190.545 58.1997C190.545 58.1997 191.45 60.9597 189.97 62.9847L188.415 62.4447Z" fill="#FFC3BD"/>
<path d="M186.22 55.5344L189.925 54.9094L190.545 58.1994L186.095 59.3444L186.22 55.5344Z" fill="#FFC3BD"/>
<path d="M148.52 176.299L152.76 176.709L155.79 166.739L151.55 166.329L148.52 176.299Z" fill="#FFC3BD"/>
<path d="M121.545 161.564L124.69 164.514L131.48 157.054L128.335 154.104L121.545 161.564Z" fill="#FFC3BD"/>
<path d="M126.145 163.1L123.78 158.845C123.741 158.77 123.677 158.713 123.598 158.683C123.52 158.654 123.433 158.654 123.355 158.685L119.715 160.07C119.622 160.107 119.539 160.165 119.47 160.238C119.402 160.311 119.35 160.398 119.318 160.493C119.286 160.588 119.275 160.688 119.286 160.788C119.297 160.887 119.329 160.984 119.38 161.07C120.23 162.54 120.715 163.21 121.75 165.07C122.39 166.22 123.635 168.865 124.52 170.455C125.405 172.045 127.02 171.26 126.8 170.515C125.8 167.19 125.98 165.34 126.265 163.875C126.317 163.61 126.274 163.336 126.145 163.1Z" fill="#263238"/>
<path d="M153.265 175.414H148.12C148.028 175.416 147.939 175.447 147.867 175.503C147.794 175.559 147.741 175.636 147.715 175.724L146.595 179.794C146.569 179.891 146.565 179.992 146.585 180.09C146.604 180.188 146.646 180.28 146.707 180.359C146.768 180.438 146.847 180.502 146.936 180.545C147.026 180.589 147.125 180.611 147.225 180.609C149.035 180.609 149.895 180.609 152.155 180.609H159.07C160.95 180.609 161.34 178.709 160.57 178.539C157.07 177.769 155.07 176.704 153.995 175.689C153.797 175.506 153.535 175.407 153.265 175.414Z" fill="#263238"/>
<path opacity="0.2" d="M155.79 166.745L154.23 171.88H149.86L151.55 166.335L155.79 166.745Z" fill="black"/>
<path opacity="0.2" d="M128.335 154.104L131.48 157.059L127.98 160.904L124.835 157.949L128.335 154.104Z" fill="black"/>
<path d="M175.925 65.4194C175.925 65.4194 177.625 66.5744 166.85 89.9844L149.885 85.2894C152.08 78.4594 153.27 74.2044 153.885 59.1194C156.397 59.286 158.894 59.6353 161.355 60.1644C163.969 60.6923 166.542 61.4058 169.055 62.2994C171.397 63.2198 173.691 64.2612 175.925 65.4194Z" fill="#263238"/>
<path opacity="0.1" d="M175.925 65.4194C175.925 65.4194 177.625 66.5744 166.85 89.9844L149.885 85.2894C152.08 78.4594 153.27 74.2044 153.885 59.1194C156.397 59.286 158.894 59.6353 161.355 60.1644C163.969 60.6923 166.542 61.4058 169.055 62.2994C171.397 63.2198 173.691 64.2612 175.925 65.4194Z" fill="white"/>
<path d="M164.525 51.6992C164.325 54.3142 163.55 58.9892 161.36 60.1642C161.36 60.1642 160.085 64.4992 165.615 66.0942C170.3 67.4392 169.06 62.2992 169.06 62.2992C166.48 60.8742 168.06 58.3492 168.56 55.5192L164.525 51.6992Z" fill="#FFC3BD"/>
<path opacity="0.2" d="M164.5 51.7043C164.34 53.7993 163.815 57.2393 162.47 59.1093C164.03 59.2643 166.47 58.7893 167.19 57.6093C167.546 56.7821 167.835 55.9277 168.055 55.0543L164.5 51.7043Z" fill="black"/>
<path d="M171.385 47.9144C171.385 52.2144 171.46 54.0394 169.425 56.3644C166.36 59.8644 161.08 58.9094 159.805 54.6894C158.66 50.8944 158.87 44.4994 162.97 42.5444C163.871 42.1093 164.868 41.9119 165.867 41.9709C166.865 42.0299 167.832 42.3434 168.676 42.8816C169.519 43.4198 170.211 44.1647 170.685 45.0456C171.159 45.9265 171.4 46.9141 171.385 47.9144Z" fill="#FFC3BD"/>
<path d="M162.5 45.5296C164.915 48.9046 173.04 53.5946 173.585 49.0746C174.13 44.5546 169.98 40.0746 165.87 40.5196C161.76 40.9646 160.435 42.6596 162.5 45.5296Z" fill="#263238"/>
<path d="M173.165 51.9296C172.983 52.2995 172.73 52.6298 172.42 52.9018C172.111 53.1738 171.75 53.382 171.36 53.5146C170.315 53.8596 169.74 52.9396 169.985 51.9246C170.21 51.0096 171.02 49.7296 172.095 49.8246C172.329 49.8486 172.553 49.9309 172.746 50.0638C172.94 50.1968 173.097 50.3761 173.204 50.5855C173.31 50.7949 173.362 51.0277 173.355 51.2625C173.349 51.4973 173.283 51.7266 173.165 51.9296Z" fill="#FFC3BD"/>
<path d="M166.85 89.9993C166.85 89.9993 172.89 114.464 168.93 132.969C166.275 145.364 156.705 170.404 156.705 170.404L149.205 170.214C149.205 170.214 156.45 143.939 157.945 133.604C160.51 115.924 154.405 86.5593 154.405 86.5593L166.85 89.9993Z" fill="#009593"/>
<path opacity="0.2" d="M160.115 93.4995L156.375 99.3995C157.495 106.395 158.204 113.451 158.5 120.53C163.775 111.115 161.285 98.4995 160.115 93.4995Z" fill="black"/>
<path d="M158.045 170.78L148.52 170.545L149.16 167.155L158.74 167.875L158.045 170.78Z" fill="#263238"/>
<path d="M163.13 88.9998C163.13 88.9998 159.63 115.75 152.095 130.95C146 143.225 129.735 160.7 129.735 160.7L125.575 156.415C125.575 156.415 136.575 137.415 141.075 129.27C152.185 109.27 142.34 91.3448 149.87 85.2698L163.13 88.9998Z" fill="#009593"/>
<path d="M130.155 161.284L124.79 156.049L126.57 153.629L132.42 159.674L130.155 161.284Z" fill="#263238"/>
<path d="M149.905 84.2194L148.72 85.5294C148.63 85.6294 148.72 85.7894 148.93 85.8444L166.725 90.7694C166.875 90.8094 167.025 90.7694 167.06 90.6794L167.635 89.1794C167.675 89.0794 167.565 88.9544 167.4 88.9044L150.22 84.1494C150.166 84.1326 150.108 84.1302 150.053 84.1425C149.998 84.1548 149.947 84.1813 149.905 84.2194Z" fill="#009593"/>
<path opacity="0.5" d="M149.905 84.2194L148.72 85.5294C148.63 85.6294 148.72 85.7894 148.93 85.8444L166.725 90.7694C166.875 90.8094 167.025 90.7694 167.06 90.6794L167.635 89.1794C167.675 89.0794 167.565 88.9544 167.4 88.9044L150.22 84.1494C150.166 84.1326 150.108 84.1302 150.053 84.1425C149.998 84.1548 149.947 84.1813 149.905 84.2194Z" fill="white"/>
<path d="M151.68 86.7793L151.22 86.6543C151.13 86.6293 151.075 86.5593 151.095 86.5043L151.855 84.5943C151.88 84.5343 151.975 84.5093 152.065 84.5343L152.525 84.6643C152.615 84.6643 152.675 84.7543 152.65 84.8143L151.89 86.7243C151.866 86.755 151.832 86.7771 151.794 86.787C151.756 86.7969 151.716 86.7942 151.68 86.7793Z" fill="#009593"/>
<path d="M165.385 90.5748L164.925 90.4498C164.835 90.4248 164.775 90.3548 164.8 90.2998L165.56 88.3848C165.584 88.354 165.618 88.332 165.656 88.322C165.694 88.3121 165.734 88.3148 165.77 88.3298L166.23 88.4598C166.32 88.4848 166.375 88.5498 166.355 88.6048L165.595 90.4998C165.57 90.5748 165.5 90.5998 165.385 90.5748Z" fill="#009593"/>
<path d="M158.535 88.6795L158.075 88.5495C157.98 88.5495 157.925 88.4595 157.945 88.4045L158.71 86.4895C158.71 86.4345 158.825 86.4095 158.915 86.4345L159.375 86.5595C159.47 86.5595 159.525 86.6545 159.505 86.7095L158.74 88.6245C158.72 88.6795 158.625 88.7045 158.535 88.6795Z" fill="#009593"/>
<path d="M164.955 49.4995C164.955 49.8495 164.805 50.1445 164.58 50.1545C164.355 50.1645 164.15 49.8995 164.125 49.5495C164.1 49.1995 164.275 48.9045 164.505 48.8895C164.735 48.8745 164.935 49.1445 164.955 49.4995Z" fill="#263238"/>
<path d="M161 49.7246C161 50.0746 160.85 50.3697 160.62 50.3847C160.39 50.3997 160.195 50.1247 160.17 49.7747C160.145 49.4247 160.32 49.1297 160.55 49.1197C160.78 49.1097 161 49.3796 161 49.7246Z" fill="#263238"/>
<path d="M160.66 49.1294L159.81 48.9395C159.81 48.9395 160.275 49.5694 160.66 49.1294Z" fill="#263238"/>
<path d="M162.085 50.2646C161.82 51.0778 161.447 51.8514 160.975 52.5647C161.16 52.6811 161.368 52.7558 161.585 52.7834C161.802 52.8111 162.022 52.791 162.23 52.7246L162.085 50.2646Z" fill="#ED847E"/>
<path d="M164.175 53.9144C163.967 53.9681 163.754 54 163.54 54.0094C163.529 54.0108 163.517 54.0098 163.506 54.0064C163.495 54.0031 163.485 53.9974 163.477 53.9898C163.468 53.9822 163.462 53.9729 163.457 53.9625C163.452 53.9521 163.45 53.9408 163.45 53.9294C163.449 53.9182 163.451 53.907 163.455 53.8965C163.458 53.8859 163.464 53.8762 163.471 53.8678C163.479 53.8594 163.488 53.8526 163.498 53.8477C163.508 53.8429 163.519 53.84 163.53 53.8394C163.967 53.8217 164.394 53.7022 164.777 53.4904C165.16 53.2786 165.488 52.9804 165.735 52.6194C165.748 52.6036 165.766 52.5929 165.786 52.5893C165.806 52.5856 165.827 52.5893 165.844 52.5996C165.862 52.6098 165.875 52.6261 165.882 52.6453C165.888 52.6645 165.888 52.6855 165.88 52.7044C165.486 53.3099 164.877 53.7425 164.175 53.9144Z" fill="#263238"/>
<path d="M166.26 46.9448C166.232 46.9521 166.202 46.9518 166.174 46.9439C166.146 46.936 166.12 46.9208 166.1 46.8998C165.918 46.7079 165.693 46.5623 165.443 46.4753C165.194 46.3883 164.927 46.3624 164.665 46.3998C164.621 46.4076 164.575 46.3986 164.537 46.3745C164.499 46.3505 164.472 46.3131 164.46 46.2698C164.451 46.2254 164.459 46.1793 164.484 46.1411C164.508 46.1028 164.546 46.0755 164.59 46.0648C164.907 46.014 165.231 46.0402 165.536 46.1411C165.84 46.2421 166.116 46.4148 166.34 46.6448C166.371 46.6781 166.388 46.7218 166.388 46.7673C166.388 46.8127 166.371 46.8565 166.34 46.8898C166.318 46.9141 166.291 46.9329 166.26 46.9448Z" fill="#263238"/>
<path d="M159.29 47.4495C159.264 47.4654 159.233 47.4738 159.203 47.4738C159.172 47.4738 159.141 47.4654 159.115 47.4495C159.08 47.4227 159.056 47.383 159.05 47.3391C159.043 47.2952 159.054 47.2505 159.08 47.2145C159.264 46.9521 159.509 46.7379 159.794 46.59C160.078 46.442 160.394 46.3647 160.715 46.3645C160.737 46.3658 160.759 46.3715 160.779 46.3812C160.799 46.3909 160.818 46.4046 160.832 46.4213C160.847 46.438 160.859 46.4575 160.866 46.4786C160.873 46.4998 160.876 46.5222 160.875 46.5445C160.874 46.5668 160.868 46.5887 160.858 46.6088C160.849 46.629 160.835 46.647 160.818 46.6619C160.802 46.6767 160.782 46.6882 160.761 46.6955C160.74 46.7028 160.717 46.7059 160.695 46.7045C160.431 46.7087 160.173 46.7752 159.94 46.8986C159.707 47.022 159.506 47.1988 159.355 47.4145C159.336 47.4309 159.314 47.4429 159.29 47.4495Z" fill="#263238"/>
<path d="M154.285 65.5642C153.85 66.2242 153.455 66.7542 153.01 67.3142C152.565 67.8742 152.13 68.3992 151.67 68.9192C150.747 69.9644 149.766 70.956 148.73 71.8892C147.7 72.8412 146.608 73.7231 145.46 74.5292C144.895 74.9492 144.29 75.3142 143.7 75.6942L142.775 76.2242L142.315 76.4842C142.145 76.5742 141.925 76.6942 141.715 76.7792C140.788 77.1983 139.759 77.334 138.755 77.1692C137.808 76.9903 136.922 76.5701 136.185 75.9492C135.562 75.4298 135.014 74.8275 134.555 74.1592C134.132 73.5523 133.756 72.9138 133.43 72.2492C132.244 69.7309 131.425 67.0552 131 64.3042L133 63.8442C133.415 65.0342 133.88 66.2692 134.405 67.4242C134.897 68.5788 135.477 69.6938 136.14 70.7592C136.693 71.7234 137.426 72.5721 138.3 73.2592C138.591 73.482 138.936 73.6219 139.3 73.6642C139.618 73.6778 139.933 73.6015 140.21 73.4442C140.307 73.395 140.4 73.3399 140.49 73.2792L140.88 73.0292L141.655 72.5292C142.155 72.1592 142.655 71.8142 143.155 71.4192C144.14 70.648 145.084 69.827 145.985 68.9592C146.9 68.0942 147.755 67.1692 148.58 66.2192C148.995 65.7442 149.4 65.2642 149.79 64.7742C150.18 64.2842 150.57 63.7742 150.885 63.3242L154.285 65.5642Z" fill="#FFC3BD"/>
<path d="M133.385 65.6894L133.825 61.0244L129.63 62.7394C129.63 62.7394 130.13 65.0844 131.73 65.9244L133.385 65.6894Z" fill="#FFC3BD"/>
<path d="M132.485 58.5046L129.24 57.7996L129.63 62.7396L133.825 61.0246L132.485 58.5046Z" fill="#FFC3BD"/>
<path d="M153.89 59.1194C151.705 59.1194 146.445 67.4594 146.445 67.4594L150.16 71.3094C150.16 71.3094 157.16 66.5894 157.435 63.8094C157.675 61.4194 156.67 59.1444 153.89 59.1194Z" fill="#263238"/>
<path opacity="0.1" d="M153.89 59.1194C151.705 59.1194 146.445 67.4594 146.445 67.4594L150.16 71.3094C150.16 71.3094 157.16 66.5894 157.435 63.8094C157.675 61.4194 156.67 59.1444 153.89 59.1194Z" fill="white"/>
<path d="M150.5 71.4997C150.425 71.5745 150.323 71.6165 150.217 71.6165C150.112 71.6165 150.01 71.5745 149.935 71.4997L146.18 67.8197C146.105 67.7447 146.063 67.6431 146.063 67.5372C146.063 67.4313 146.105 67.3297 146.18 67.2547C146.256 67.1796 146.358 67.1375 146.465 67.1375C146.572 67.1375 146.674 67.1796 146.75 67.2547L150.5 70.9297C150.575 71.0055 150.617 71.108 150.617 71.2147C150.617 71.3214 150.575 71.4239 150.5 71.4997Z" fill="#009593"/>
<path d="M127 165.39C127.137 165.386 127.269 165.337 127.375 165.25C127.425 165.217 127.465 165.172 127.491 165.118C127.517 165.064 127.527 165.004 127.52 164.945C127.475 164.405 126.105 163.67 125.945 163.585C125.931 163.576 125.916 163.572 125.9 163.572C125.884 163.572 125.868 163.576 125.855 163.585C125.841 163.595 125.831 163.609 125.825 163.625C125.82 163.641 125.82 163.658 125.825 163.675C125.98 164.225 126.325 165.175 126.825 165.35C126.88 165.373 126.94 165.387 127 165.39ZM126 163.835C126.5 164.105 127.28 164.625 127.305 164.96C127.308 164.99 127.303 165.02 127.288 165.047C127.274 165.074 127.252 165.096 127.225 165.11C127.174 165.157 127.112 165.19 127.045 165.206C126.977 165.222 126.906 165.22 126.84 165.2C126.57 165.1 126.26 164.595 126 163.835Z" fill="#009593"/>
<path d="M127.185 164.05C127.401 164.066 127.617 164.012 127.8 163.895C127.86 163.845 127.901 163.776 127.916 163.699C127.93 163.622 127.918 163.543 127.88 163.475C127.854 163.403 127.811 163.338 127.756 163.285C127.7 163.232 127.633 163.193 127.56 163.17C126.975 162.965 125.885 163.56 125.84 163.585C125.827 163.593 125.816 163.604 125.808 163.617C125.801 163.63 125.796 163.644 125.795 163.66C125.795 163.674 125.799 163.689 125.806 163.702C125.813 163.715 125.823 163.726 125.835 163.735C126.256 163.939 126.717 164.047 127.185 164.05ZM127.27 163.295C127.35 163.294 127.43 163.308 127.505 163.335C127.555 163.349 127.6 163.375 127.637 163.411C127.675 163.447 127.703 163.491 127.72 163.54C127.775 163.67 127.72 163.73 127.69 163.765C127.435 163.98 126.535 163.86 126.07 163.66C126.442 163.461 126.85 163.337 127.27 163.295Z" fill="#009593"/>
<path d="M155.545 176.244C155.895 176.27 156.244 176.188 156.545 176.009C156.623 175.951 156.686 175.876 156.729 175.789C156.772 175.702 156.795 175.606 156.795 175.509C156.801 175.459 156.794 175.408 156.772 175.362C156.751 175.316 156.717 175.277 156.675 175.249C156.21 174.929 154.34 175.789 154.13 175.889C154.113 175.897 154.099 175.91 154.09 175.926C154.081 175.942 154.077 175.961 154.08 175.979C154.082 175.997 154.089 176.013 154.101 176.025C154.113 176.038 154.128 176.046 154.145 176.049C154.604 176.164 155.073 176.229 155.545 176.244ZM156.365 175.359C156.438 175.355 156.511 175.37 156.575 175.404C156.6 175.404 156.625 175.449 156.62 175.519C156.619 175.588 156.602 175.656 156.57 175.717C156.537 175.778 156.491 175.83 156.435 175.869C156.015 176.189 154.99 176.054 154.435 175.954C155.043 175.656 155.694 175.455 156.365 175.359Z" fill="#009593"/>
<path d="M154.16 176.07H154.19C154.755 175.84 155.93 174.894 155.865 174.424C155.865 174.324 155.785 174.199 155.53 174.169C154.53 174.054 154.095 175.889 154.075 175.969C154.072 175.985 154.073 176.001 154.079 176.016C154.084 176.031 154.093 176.044 154.105 176.054C154.122 176.064 154.141 176.07 154.16 176.07ZM155.44 174.329H155.5C155.675 174.329 155.685 174.414 155.69 174.439C155.73 174.739 154.89 175.504 154.28 175.824C154.415 175.399 154.795 174.329 155.44 174.329Z" fill="#009593"/>
<path d="M164.605 48.8995L163.755 48.7095C163.755 48.7095 164.22 49.3395 164.605 48.8995Z" fill="#263238"/>
<path d="M76.2562 178.347L132.806 173.409C136.646 173.074 139.488 169.689 139.152 165.849L127.374 30.9519C127.039 27.1116 123.654 24.2702 119.814 24.6055L63.2637 29.543C59.4234 29.8783 56.582 33.2634 56.9173 37.1037L68.6955 172C69.0308 175.841 72.4158 178.682 76.2562 178.347Z" fill="#009593"/>
<path d="M61.1497 76.9461C61.6736 76.8966 62.1568 76.6426 62.4947 76.2392C62.8326 75.8358 62.9979 75.3155 62.9547 74.7911L61.3997 57.0011C61.3514 56.4773 61.0987 55.9936 60.6962 55.6548C60.2938 55.316 59.7741 55.1494 59.2497 55.1911C58.725 55.2394 58.2405 55.4929 57.9016 55.8964C57.5626 56.2999 57.3967 56.8209 57.4397 57.3461L58.9997 75.1361C59.0481 75.6599 59.3008 76.1436 59.7032 76.4824C60.1057 76.8212 60.6254 76.9878 61.1497 76.9461Z" fill="#009593"/>
<path d="M130.218 62.8753L130.91 62.8148C131.722 62.744 132.322 62.0286 132.251 61.2171L131.302 50.3485C131.231 49.5369 130.516 48.9365 129.705 49.0074L129.012 49.0678C128.201 49.1387 127.6 49.854 127.671 50.6655L128.62 61.5342C128.691 62.3457 129.406 62.9461 130.218 62.8753Z" fill="#263238"/>
<path d="M131.03 81.1719L131.725 81.1093C132.539 81.036 133.14 80.3162 133.067 79.5016L132.085 68.5916C132.012 67.7769 131.292 67.176 130.477 67.2493L129.782 67.3119C128.968 67.3852 128.367 68.105 128.44 68.9196L129.422 79.8296C129.495 80.6442 130.215 81.2452 131.03 81.1719Z" fill="#263238"/>
<path d="M77.4445 178.24L133.994 173.302C137.835 172.967 140.676 169.582 140.341 165.742L128.563 30.845C128.227 27.0046 124.842 24.1633 121.002 24.4986L64.452 29.4361C60.6117 29.7714 57.7703 33.1564 58.1056 36.9968L69.8838 171.894C70.2191 175.734 73.6041 178.575 77.4445 178.24Z" fill="#263238"/>
<path opacity="0.4" d="M71.8748 169.841L138 164.066C138.345 164.034 138.664 163.867 138.887 163.601C139.11 163.335 139.219 162.992 139.19 162.646L128 34.3461C127.968 34.0014 127.802 33.6832 127.537 33.4604C127.272 33.2377 126.93 33.1283 126.585 33.1561L60.4348 38.9361C60.2641 38.9512 60.098 38.9998 59.9461 39.0791C59.7941 39.1583 59.6593 39.2668 59.5493 39.3982C59.4392 39.5296 59.3561 39.6813 59.3048 39.8449C59.2534 40.0084 59.2347 40.1804 59.2498 40.3511L70.4598 168.656C70.4743 168.827 70.5224 168.993 70.6015 169.146C70.6806 169.298 70.789 169.433 70.9206 169.543C71.0521 169.653 71.2041 169.736 71.3679 169.788C71.5317 169.839 71.704 169.857 71.8748 169.841Z" fill="#009593"/>
<path opacity="0.3" d="M117.845 33.9211L109.535 166.551L95.7148 167.761L104.025 35.1261L117.845 33.9211Z" fill="#009593"/>
<path opacity="0.2" d="M100.06 29.6643L85.9389 30.8972C85.6115 30.9258 85.3693 31.2144 85.3979 31.5417L85.4479 32.1145C85.4765 32.4419 85.765 32.6841 86.0924 32.6555L100.214 31.4226C100.541 31.394 100.783 31.1054 100.755 30.7781L100.705 30.2052C100.676 29.8779 100.388 29.6357 100.06 29.6643Z" fill="white"/>
<path d="M86.8998 81.061H155.705C157.492 81.0663 159.205 81.7786 160.468 83.0424C161.732 84.3062 162.445 86.0188 162.45 87.806V121.556C162.445 123.344 161.732 125.057 160.469 126.321C159.205 127.586 157.493 128.299 155.705 128.306H131.895L121.3 138.901L110.705 128.306H86.8998C85.1113 128.301 83.3974 127.588 82.1327 126.323C80.868 125.058 80.1551 123.345 80.1498 121.556V87.806C80.1551 86.0179 80.8681 84.3046 82.133 83.0407C83.3979 81.7767 85.1117 81.065 86.8998 81.061Z" fill="#009593"/>
<path opacity="0.3" d="M86.8998 81.061H155.705C157.492 81.0663 159.205 81.7786 160.468 83.0424C161.732 84.3062 162.445 86.0188 162.45 87.806V121.556C162.445 123.344 161.732 125.057 160.469 126.321C159.205 127.586 157.493 128.299 155.705 128.306H131.895L121.3 138.901L110.705 128.306H86.8998C85.1113 128.301 83.3974 127.588 82.1327 126.323C80.868 125.058 80.1551 123.345 80.1498 121.556V87.806C80.1551 86.0179 80.8681 84.3046 82.133 83.0407C83.3979 81.7767 85.1117 81.065 86.8998 81.061Z" fill="white"/>
<path d="M91.3098 92.7561V116.606C91.3017 117.531 91.6601 118.421 92.3066 119.083C92.953 119.744 93.835 120.123 94.7598 120.136H147.84C148.765 120.123 149.647 119.744 150.293 119.083C150.939 118.421 151.298 117.531 151.29 116.606V92.7561C151.289 92.3043 151.205 91.8567 151.04 91.4361C150.788 90.7902 150.349 90.2346 149.778 89.8407C149.208 89.4468 148.533 89.2327 147.84 89.2261H94.7598C94.0672 89.2324 93.3924 89.4463 92.8228 89.8403C92.2532 90.2344 91.815 90.7902 91.5648 91.4361C91.3953 91.8555 91.3087 92.3037 91.3098 92.7561Z" fill="white"/>
<path opacity="0.1" d="M91.5648 91.4361L117.225 102.611C118.511 103.173 119.899 103.462 121.302 103.462C122.706 103.462 124.094 103.173 125.38 102.611L151.04 91.4361C150.788 90.7902 150.349 90.2346 149.778 89.8407C149.208 89.4468 148.533 89.2327 147.84 89.2261H94.7598C94.0672 89.2324 93.3924 89.4463 92.8228 89.8403C92.2532 90.2344 91.8149 90.7902 91.5648 91.4361Z" fill="black"/>
<path d="M143.185 20.4609C142.829 20.458 142.486 20.3287 142.216 20.0961C141.947 19.8634 141.769 19.5426 141.715 19.1909C141.029 14.6833 138.584 10.6316 134.915 7.92386C131.247 5.21612 126.654 4.07332 122.145 4.74595C121.779 4.75557 121.422 4.63094 121.141 4.39556C120.861 4.16017 120.676 3.8303 120.622 3.46811C120.568 3.10593 120.648 2.73647 120.848 2.42937C121.047 2.12227 121.352 1.89875 121.705 1.80095C126.995 1.01233 132.382 2.35389 136.684 5.53139C140.986 8.70889 143.853 13.463 144.655 18.7509C144.709 19.1403 144.609 19.5355 144.375 19.8515C144.142 20.1676 143.793 20.3792 143.405 20.4409C143.332 20.4548 143.259 20.4615 143.185 20.4609Z" fill="#009593"/>
<path d="M135.79 21.5711C135.435 21.5684 135.092 21.4398 134.823 21.2081C134.554 20.9765 134.375 20.6569 134.32 20.3061C133.934 17.7575 132.552 15.4661 130.479 13.9345C128.405 12.4029 125.809 11.7562 123.26 12.1361C122.893 12.1471 122.535 12.0234 122.254 11.7885C121.972 11.5535 121.786 11.2235 121.732 10.8609C121.677 10.4983 121.757 10.1282 121.956 9.82048C122.156 9.51281 122.461 9.28891 122.815 9.19111C126.145 8.69357 129.537 9.53758 132.246 11.5379C134.955 13.5383 136.76 16.5316 137.265 19.8611C137.321 20.2512 137.221 20.6477 136.987 20.9649C136.753 21.2821 136.404 21.4944 136.015 21.5561C135.94 21.5661 135.865 21.5711 135.79 21.5711Z" fill="#009593"/>
<path d="M128.4 22.6857C128.044 22.6828 127.701 22.5535 127.431 22.3209C127.162 22.0882 126.984 21.7674 126.93 21.4157C126.886 21.1233 126.786 20.8422 126.634 20.5888C126.481 20.3353 126.28 20.1145 126.043 19.9389C125.805 19.7632 125.534 19.6363 125.247 19.5654C124.96 19.4946 124.662 19.4811 124.37 19.5257C124.007 19.5307 123.655 19.404 123.378 19.169C123.102 18.934 122.92 18.6068 122.866 18.2479C122.812 17.889 122.89 17.5228 123.086 17.2172C123.282 16.9116 123.581 16.6872 123.93 16.5857C124.61 16.4831 125.304 16.516 125.972 16.6826C126.64 16.8492 127.268 17.1463 127.821 17.5566C128.373 17.9669 128.839 18.4825 129.192 19.0735C129.544 19.6646 129.776 20.3196 129.875 21.0007C129.93 21.3901 129.829 21.7853 129.595 22.1013C129.362 22.4174 129.013 22.629 128.625 22.6907C128.55 22.6965 128.474 22.6948 128.4 22.6857Z" fill="#009593"/>
</svg>
