<svg width="70" height="70" viewBox="0 0 70 70" fill="none" xmlns="http://www.w3.org/2000/svg">
<g clip-path="url(#clip0_161_15418)">
<rect width="70" height="70" rx="16" fill="#E0F2F3"/>
<g clip-path="url(#clip1_161_15418)">
<path d="M62.4043 19.3865L62.2509 19.2089C62.6388 18.8714 62.8799 18.6916 62.8909 18.6851L63.029 18.8714C63.029 18.8714 62.7835 19.0533 62.4043 19.3865Z" fill="#CCC3BC"/>
<path d="M59.2613 53.8635V53.6311C59.8137 53.6114 60.3573 53.5895 60.8768 53.561V53.7955C60.3573 53.8218 59.8181 53.8459 59.2613 53.8635ZM61.804 53.7407L61.7886 53.5084C62.33 53.4733 62.8736 53.4339 63.3997 53.39L63.4194 53.6224C62.8956 53.6706 62.352 53.7079 61.8084 53.7407H61.804ZM64.3401 53.5369L64.3181 53.3045C64.8639 53.2519 65.4141 53.1906 65.9226 53.1248L65.9511 53.3571C65.4338 53.4229 64.8924 53.4843 64.3444 53.5369H64.3401ZM66.8739 53.2322L66.8411 52.9999C67.3869 52.9231 67.9217 52.8355 68.4324 52.7456L68.4741 52.9648C67.9611 53.07 67.4219 53.1555 66.8739 53.2322ZM69.3837 52.8048L69.3443 52.5746C69.8835 52.4694 70.4117 52.3554 70.9181 52.2283L70.9729 52.4475C70.4578 52.5746 69.9251 52.6996 69.3837 52.807V52.8048ZM71.865 52.2217L71.8014 52.0025C72.3363 51.8557 72.8536 51.6978 73.3358 51.5312L73.4125 51.7504C72.9237 51.917 72.413 52.0748 71.865 52.2239V52.2217ZM74.2893 51.4304L74.206 51.2112C74.7233 51.0118 75.2187 50.7991 75.6812 50.5756L75.782 50.7948C75.3151 51.0161 74.811 51.2331 74.2893 51.4326V51.4304ZM76.6084 50.3629L76.4944 50.1591C76.9623 49.9009 77.4146 49.6155 77.849 49.3042L77.9849 49.4949C77.5432 49.8113 77.0836 50.1019 76.6084 50.3651V50.3629ZM78.7192 48.9185L78.568 48.7409C78.9728 48.3965 79.3482 48.0189 79.6902 47.612L79.87 47.7611C79.5202 48.1798 79.1352 48.5677 78.7192 48.9206V48.9185ZM80.4289 47.0115L80.2338 46.8821C80.5264 46.4392 80.7732 45.9677 80.9703 45.4749L81.1895 45.5604C80.9859 46.0693 80.731 46.5562 80.4289 47.0136V47.0115ZM81.4833 44.6836L81.2641 44.6222C81.4005 44.1083 81.49 43.583 81.5315 43.0528L81.766 43.0703C81.7207 43.6155 81.6261 44.1555 81.4833 44.6836ZM81.5578 42.1388C81.5578 41.9349 81.5578 41.7245 81.5359 41.5119C81.5161 41.1831 81.4811 40.8543 81.4328 40.5452L81.663 40.508C81.7134 40.828 81.7485 41.1655 81.7704 41.4987C81.7836 41.7179 81.7901 41.9371 81.7923 42.1366L81.5578 42.1388ZM81.2487 39.6421C81.1173 39.1267 80.9359 38.6253 80.7073 38.145L80.9265 38.0442C81.1617 38.5365 81.3488 39.0503 81.4854 39.5786L81.2487 39.6421ZM80.2645 37.3537C79.9765 36.9073 79.639 36.4948 79.2584 36.1241L79.4206 35.9575C79.814 36.3398 80.1625 36.7655 80.4596 37.2266L80.2645 37.3537ZM78.568 35.5344C78.1429 35.2156 77.6869 34.9402 77.2068 34.7125L77.3054 34.4933C77.8001 34.7277 78.2701 35.0111 78.7083 35.3393L78.568 35.5344ZM76.3585 34.3617C75.8579 34.1833 75.3451 34.0412 74.8241 33.9365L74.8702 33.7173C75.4049 33.8241 75.931 33.9706 76.444 34.1557L76.3585 34.3617ZM65.1335 34.2719C64.9954 34.2719 64.8573 34.2719 64.7214 34.2719V34.0373C65.2566 34.0522 65.7922 34.039 66.326 33.9979L66.3435 34.2302C65.9402 34.2565 65.5325 34.2719 65.1379 34.2719H65.1335ZM63.7921 34.2083C63.2493 34.157 62.7109 34.0669 62.181 33.9387L62.2358 33.7195C62.7549 33.8452 63.2823 33.9338 63.814 33.9847L63.7921 34.2083ZM67.2751 34.1316L67.2466 33.8992C67.5184 33.8642 67.7967 33.8247 68.0773 33.7765C68.3579 33.7283 68.5924 33.6932 68.8445 33.6581L68.8774 33.8905C68.6275 33.9255 68.3732 33.9628 68.1168 34.0066C67.8603 34.0505 67.5534 34.0965 67.2794 34.1316H67.2751ZM73.9145 33.7896C73.3835 33.7225 72.8494 33.683 72.3143 33.6713V33.4389C72.8574 33.4508 73.3995 33.4903 73.9386 33.5573L73.9145 33.7896ZM69.7914 33.7787L69.7673 33.5463C70.3197 33.4893 70.8633 33.4543 71.3893 33.4389V33.6735C70.8786 33.6866 70.3416 33.7239 69.7958 33.7787H69.7914ZM61.2845 33.6713C60.7671 33.4916 60.2703 33.2572 59.8027 32.972L59.9233 32.7726C60.3781 33.0477 60.8599 33.2754 61.3612 33.4521L61.2845 33.6713ZM59.0421 32.4262C58.6201 32.0732 58.251 31.6612 57.9461 31.2031L58.1412 31.0738C58.4351 31.5136 58.7909 31.9085 59.1977 32.2465L59.0421 32.4262ZM57.4946 30.3724C57.2793 29.8631 57.1454 29.3231 57.0979 28.7723L57.3324 28.7526C57.3761 29.2807 57.5034 29.7986 57.7094 30.2869L57.4946 30.3724ZM57.328 27.8473L57.0935 27.8297C57.1291 27.3843 57.2099 26.9437 57.3346 26.5146C57.3631 26.4181 57.3916 26.3217 57.4223 26.2274L57.6415 26.2976C57.613 26.3896 57.5845 26.4839 57.5582 26.5781C57.4384 26.9922 57.3612 27.4175 57.328 27.8473ZM57.9527 25.4361L57.7335 25.3485C57.9393 24.8443 58.1743 24.3524 58.4371 23.8755L58.641 23.9895C58.3812 24.4561 58.1492 24.9377 57.9461 25.4318L57.9527 25.4361ZM59.1123 23.2004L58.915 23.0754C59.1999 22.637 59.5156 22.1789 59.8553 21.7449L60.0395 21.8896C59.6997 22.3126 59.3928 22.7642 59.1123 23.2025V23.2004ZM60.6247 21.1794L60.4472 21.0259C60.8023 20.6182 61.1793 20.2215 61.5672 19.8445L61.7294 20.0111C61.3459 20.3793 60.9754 20.7717 60.6247 21.175V21.1794Z" fill="#CCC3BC"/>
<path d="M57.4619 53.9095V53.6706L58.2773 53.6553V53.8876L57.4619 53.9095Z" fill="#CCC3BC"/>
<path d="M62.9615 16.2541L58.5141 13.3432L77.6892 9.58838L62.9615 16.2541Z" fill="#F2E2E5"/>
<path d="M62.9614 16.2541L64.2546 19.1716L77.6891 9.58838L62.9614 16.2541Z" fill="#E0D3D5"/>
<path d="M64.8638 17.6197L64.2544 19.1716L67.1281 17.2625L64.8638 17.6197Z" fill="#CCBEC1"/>
<path d="M64.8637 17.6197L68.5264 23.7747L77.6888 9.58838L64.8637 17.6197Z" fill="#F2E2E5"/>
<path d="M-4.74359 56.8643C-4.74359 56.8643 -8.64087 57.8068 -10.6618 58.6792C-12.6828 59.5516 -15.4052 59.4902 6.14162 63.1047C27.6884 66.7192 29.1351 67.4031 28.449 68.3961C27.763 69.389 37.4097 70.268 41.0922 69.8581C44.7747 69.4482 46.0613 68.3961 46.0613 68.3961C46.0613 68.3961 54.4236 69.1567 59.7435 73.0145C68.2482 69.4526 83 63.096 83 63.096L71.2468 60.2048L-4.74359 56.8643Z" fill="#B2DEE0"/>
<path d="M55.5041 56.54L53.4437 56.3032L52.7576 57.1318L55.5041 56.54Z" fill="#0A6C8E"/>
<path d="M47.4554 7.74508L47.4401 17.6746C47.4401 17.6746 35.7614 18.5711 33.2275 17.7689C30.6936 16.9666 31.8838 13.6173 31.886 12.0172C31.8882 10.4171 31.9277 6.52198 32.3244 5.60575C32.7211 4.68951 34.6588 5.16736 37.0261 5.46108C39.3934 5.7548 47.4554 7.74508 47.4554 7.74508Z" fill="#EEE6DE"/>
<path d="M31.886 12.0238C31.886 10.4259 31.9277 6.52857 32.3244 5.61234C32.7211 4.6961 34.6588 5.17395 37.0261 5.46767C39.3934 5.76139 47.4444 7.75168 47.4444 7.75168V9.41537C45.2788 8.8893 39.6543 7.80867 37.7736 7.57413C35.4041 7.27822 33.736 6.96696 33.3283 7.88319C32.9206 8.79943 32.7825 12.3087 32.7803 13.9089C32.7803 14.7856 32.4186 16.1994 32.5173 17.416C30.9457 16.2499 31.8838 13.442 31.886 12.0238Z" fill="#EFD5BF"/>
<g opacity="0.58">
<g style="mix-blend-mode:multiply">
<path d="M31.9565 5.74365L47.3395 8.55153C47.3395 8.55153 34.9967 5.83352 31.9565 5.74365Z" fill="#E8D3C1"/>
</g>
<g style="mix-blend-mode:multiply">
<path d="M31.5488 11.4406L47.0699 12.6506C47.0699 12.6506 34.5693 11.239 31.5488 11.4406Z" fill="#E8D3C1"/>
</g>
<g style="mix-blend-mode:multiply">
<path d="M31.5488 10.8071L47.0612 12.416C47.0612 12.416 34.5758 10.6602 31.5488 10.8071Z" fill="#E8D3C1"/>
</g>
<g style="mix-blend-mode:multiply">
<path d="M31.5488 10.4233L47.0612 12.0235C47.0612 12.0235 34.5758 10.2699 31.5488 10.4233Z" fill="#E8D3C1"/>
</g>
<g style="mix-blend-mode:multiply">
<path d="M31.555 9.91926L47.0565 11.6728C47.0565 11.6728 34.5843 9.80309 31.555 9.91926Z" fill="#E8D3C1"/>
</g>
<g style="mix-blend-mode:multiply">
<path d="M31.5706 9.24851L47.0436 11.3331C47.0436 11.3331 34.6043 9.19591 31.5706 9.24851Z" fill="#E8D3C1"/>
</g>
<g style="mix-blend-mode:multiply">
<path d="M31.5706 8.76634L47.0436 10.8487C47.0436 10.8487 34.6043 8.71373 31.5706 8.76634Z" fill="#E8D3C1"/>
</g>
<g style="mix-blend-mode:multiply">
<path d="M31.5796 8.17451L47.0372 10.4081C47.0372 10.4081 34.6154 8.1504 31.5796 8.17451Z" fill="#E8D3C1"/>
</g>
<g style="mix-blend-mode:multiply">
<path d="M31.5796 7.62226L47.0372 9.85586C47.0372 9.85586 34.6154 7.59815 31.5796 7.62226Z" fill="#E8D3C1"/>
</g>
<g style="mix-blend-mode:multiply">
<path d="M31.5902 7.05884L47.0281 9.45682C47.0281 9.45682 34.6283 7.06761 31.5902 7.05884Z" fill="#E8D3C1"/>
</g>
<g style="mix-blend-mode:multiply">
<path d="M31.5247 6.42969L46.9626 8.82768C46.9626 8.82768 34.5605 6.43846 31.5247 6.42969Z" fill="#E8D3C1"/>
</g>
<g style="mix-blend-mode:multiply">
<path d="M31.9917 16.7011L46.9627 16.6836C46.9627 16.6836 35.0078 17.1329 31.9917 16.7011Z" fill="#E8D3C1"/>
</g>
<g style="mix-blend-mode:multiply">
<path d="M31.6081 11.9182L47.0065 12.9572C47.0065 12.9572 34.6439 12.4728 31.6081 11.9182Z" fill="#E8D3C1"/>
</g>
<g style="mix-blend-mode:multiply">
<path d="M31.6125 12.429L47 13.3057C47 13.3057 34.6177 13.0646 31.6125 12.429Z" fill="#E8D3C1"/>
</g>
<g style="mix-blend-mode:multiply">
<path d="M31.6255 13.1064L46.9866 13.6566C46.9866 13.6566 34.635 13.6807 31.6255 13.1064Z" fill="#E8D3C1"/>
</g>
<g style="mix-blend-mode:multiply">
<path d="M31.6233 13.5908L46.9866 14.1454C46.9866 14.1454 34.6328 14.1651 31.6233 13.5908Z" fill="#E8D3C1"/>
</g>
<g style="mix-blend-mode:multiply">
<path d="M31.6299 14.1892L46.9736 14.5881C46.9736 14.5881 34.6417 14.7328 31.6299 14.1892Z" fill="#E8D3C1"/>
</g>
<g style="mix-blend-mode:multiply">
<path d="M31.6277 14.7458L46.9713 15.1448C46.9713 15.1448 34.6394 15.2895 31.6277 14.7458Z" fill="#E8D3C1"/>
</g>
<g style="mix-blend-mode:multiply">
<path d="M31.6429 15.3115L46.9712 15.5307C46.9712 15.5307 34.648 15.8266 31.6429 15.3115Z" fill="#E8D3C1"/>
</g>
<g style="mix-blend-mode:multiply">
<path d="M31.5666 15.9385L46.8949 16.1577C46.8949 16.1577 34.5805 16.4492 31.5666 15.9385Z" fill="#E8D3C1"/>
</g>
<g style="mix-blend-mode:multiply">
<path d="M31.8623 17.1658L47.2608 17.3433C47.2608 17.3433 34.8894 17.6107 31.8623 17.1658Z" fill="#E8D3C1"/>
</g>
</g>
<path d="M33.4839 4.22681C33.4839 4.22681 8.02448 6.96893 5.94871 7.58706C3.87294 8.20519 4.34201 14.3689 4.69711 16.2803C5.0522 18.1917 6.45067 18.7506 7.94119 18.8098C9.43171 18.869 35.6803 18.7616 35.6803 18.7616C35.6803 18.7616 32.1425 18.104 31.7676 15.4233C31.3928 12.7425 32.0066 7.3854 32.1271 6.47794C32.2477 5.57047 33.4839 4.22681 33.4839 4.22681Z" fill="#9E6718"/>
<path d="M22.2504 15.912C21.9018 13.2817 22.4696 8.07365 22.5857 7.18591C22.6625 6.57874 23.228 5.76991 23.5743 5.32275L21.7528 5.54195C21.4043 6.00007 20.9023 6.74533 20.8322 7.31743C20.7204 8.1942 20.1461 13.4198 20.4946 16.0436C20.6985 17.5779 21.3977 18.3933 21.9479 18.8098H23.879C23.3135 18.435 22.4761 17.6152 22.2504 15.912Z" fill="#FFD773"/>
<path d="M19.1989 16.0021C18.8504 13.4441 19.4181 8.36314 19.5343 7.49951C19.611 6.90769 20.1721 6.12516 20.5184 5.68896L18.6838 5.90816C18.3375 6.34655 17.8487 7.06989 17.7763 7.62007C17.6645 8.48369 17.0924 13.5646 17.441 16.1226C17.6448 17.6066 18.3375 18.4044 18.8833 18.8121H20.8144C20.2445 18.4505 19.4247 17.6482 19.1989 16.0021Z" fill="#FFD773"/>
<path d="M31.1059 11.3661C31.1256 10.9606 31.1453 10.5682 31.1585 10.2021C31.1585 9.95884 31.1738 9.71115 31.1804 9.46346C31.2286 7.54331 31.2812 5.55522 32.4057 4.66309C32.9142 4.26197 33.5718 4.13045 34.3587 4.27293C36.6274 4.68501 46.1952 6.72791 48.2666 7.16849V8.51654C46.9186 8.2272 36.4871 6.00018 34.168 5.57714C33.6419 5.48288 33.4096 5.60782 33.2912 5.71084C32.6336 6.23253 32.5854 7.99266 32.546 9.54456C32.546 9.79663 32.5328 10.0465 32.524 10.2942C32.5109 10.6668 32.4758 11.3178 32.4714 11.4779C32.4605 11.8198 32.2829 16.6311 33.0939 17.1769C33.9948 17.6153 41.4781 17.9989 48.2666 17.6657V19.005C45.6363 19.1321 39.547 18.9261 35.6958 18.7726C34.1132 18.7091 32.9076 18.5754 32.4736 18.3343C30.8034 17.4115 30.9568 14.334 31.1059 11.3661Z" fill="#87510A"/>
<g style="mix-blend-mode:multiply">
<path d="M33.2605 13.1677C33.2605 13.1677 33.4972 16.4666 33.4797 18.5862C34.7444 18.7221 36.11 18.7769 36.11 18.7769C36.11 18.7769 35.5314 13.319 33.2605 13.1677Z" fill="#EFD5BF"/>
</g>
<g style="mix-blend-mode:overlay" opacity="0.46">
<path d="M6.31077 7.94887C6.31077 7.94887 23.5329 5.93667 26.3539 5.66706C29.175 5.39745 30.1306 5.14976 30.5186 5.41717C30.9066 5.68459 30.7378 8.17903 30.5186 8.54508C30.2994 8.91114 28.5744 8.89798 26.6718 8.95497C24.7691 9.01196 6.28665 9.8471 5.73867 9.86244C5.19068 9.87778 5.30028 9.01854 5.49317 8.67002C5.68606 8.3215 5.9206 7.99271 6.31077 7.94887Z" fill="white"/>
</g>
<path d="M48.2662 28.814C48.2662 28.814 49.555 32.2751 49.5134 35.1268C49.8565 34.6212 50.1719 34.0973 50.4581 33.5574L51.9925 34.9318C51.9925 34.9318 51.0456 28.5751 49.8268 26.6418C48.6081 24.7085 48.2662 28.814 48.2662 28.814Z" fill="#EE6D4A"/>
<path d="M2.11942 28.9192L6.751 31.9003H45.5484L49.8359 28.9192C49.8359 28.9192 31.1079 28.2814 24.9704 27.8233C18.833 27.3651 2.11942 28.9192 2.11942 28.9192Z" fill="#007F7C"/>
<path d="M2.11958 18.5667C2.11958 18.5667 47.9926 18.7595 49.6673 18.9524C50.6975 19.2747 50.6339 21.9159 50.6975 24.1715C50.7611 26.427 50.8268 28.5795 49.8207 28.9192C48.8146 29.259 2.86485 28.9433 2.11301 28.9192C1.36117 28.8951 0.846065 27.4353 0.760579 25.0745C0.675093 22.7138 0.42521 18.5601 2.11958 18.5667Z" fill="#00AAAC"/>
<path d="M6.93294 18.5996H5.26706C4.99505 19.0077 4.86276 19.493 4.89005 19.9827V26.5432C4.89005 27.4003 5.30652 28.402 5.62435 28.9697L7.66505 28.9851C7.07136 28.3479 6.67936 27.5495 6.53839 26.6901C6.34112 25.125 6.3718 21.1642 6.45291 20.2282C6.51647 19.4764 6.71375 18.867 6.93294 18.5996Z" fill="#4CEDE5"/>
<path d="M9.85246 18.5996H8.18878C7.92397 19.0048 7.7957 19.4841 7.82272 19.9674V26.5279C7.82272 27.4047 8.24796 28.4108 8.56798 28.9741L10.6131 28.9872C10.0102 28.3473 9.61187 27.5422 9.46887 26.6747C9.2716 25.1097 9.30229 21.1488 9.38339 20.2129C9.44695 19.4895 9.63765 18.8868 9.85246 18.5996Z" fill="#4CEDE5"/>
<path d="M44.1743 29.0551L46.1997 29.0375C46.5131 28.461 46.9011 27.5032 46.9011 26.6702V20.1097C46.9188 19.6798 46.8212 19.2529 46.6183 18.8735L44.9371 18.8494C45.1743 19.3188 45.3117 19.8323 45.3404 20.3574C45.4215 21.2912 45.4522 25.252 45.2549 26.8171C45.1195 27.6521 44.744 28.4297 44.1743 29.0551Z" fill="#4CEDE5"/>
<path d="M41.2301 29.0703H43.2555C43.5711 28.496 43.97 27.5206 43.97 26.6789V20.1097C43.9895 19.6643 43.8839 19.2224 43.6654 18.8339L41.9819 18.8164C42.2355 19.2902 42.3814 19.8141 42.4094 20.3508C42.4905 21.2845 42.5212 25.2454 42.3217 26.8104C42.1878 27.6546 41.8081 28.4407 41.2301 29.0703Z" fill="#4CEDE5"/>
<g style="mix-blend-mode:overlay">
<path d="M2.11928 19.2747H48.5885C49.6626 19.2747 50.0264 19.7569 50.1229 20.6139C50.2193 21.471 49.8642 21.6178 47.7118 21.5915C45.5593 21.5652 3.53747 21.5915 2.11928 21.5915C0.701091 21.5915 1.05619 19.2747 2.11928 19.2747Z" fill="#00C1BC"/>
</g>
<path d="M27.5744 64.9765C27.5744 64.9765 -2.3785 59.0232 -4.60991 58.3437C-6.84131 57.6642 -7.523 51.0621 -5.00007 50.2335C-2.47714 49.4049 26.073 47.6602 26.073 47.6602L59.305 49.5672L27.5744 64.9765Z" fill="#167BA8"/>
<path d="M-4.60976 58.3437C-2.37836 59.0232 27.5746 64.9765 27.5746 64.9765L44.6849 56.257L-5.93589 50.9766C-7.27955 52.9405 -6.49702 57.7672 -4.60976 58.3437Z" fill="#3989B4"/>
<path d="M58.5051 50.3652C52.3392 50.876 30.3277 52.7939 27.3356 54.4598C23.8395 56.4019 25.0056 64.0737 27.9187 64.2665C30.2772 64.4244 50.796 60.058 58.5051 58.3943V50.3652Z" fill="#EEE6DE"/>
<path d="M28.9511 56.8622C31.7305 55.3278 50.8026 53.5611 58.5051 52.9035V50.3652C52.3391 50.876 30.3276 52.7939 27.3356 54.4598C24.1617 56.2133 24.8302 62.7081 27.1603 64.032C26.3997 61.5617 26.7548 58.0831 28.9511 56.8622Z" fill="#EFD5BF"/>
<path d="M59.305 57.4759C49.9169 59.5122 30.7658 63.5454 28.0895 63.5344H27.9667C27.193 63.4818 26.4433 62.4144 26.097 60.8734C25.6126 58.7078 26.0027 56.027 27.6883 55.0911C30.3494 53.6115 50.638 51.7177 59.305 51.0228V49.563C54.0684 49.9816 30.3121 51.9741 26.9803 53.8176C24.5692 55.159 24.0914 58.5807 24.6766 61.1913C25.1786 63.4358 26.2329 64.8803 27.6993 64.9789C27.7453 64.9789 27.9689 64.9921 28.0281 64.9921C31.2064 64.9921 51.9751 60.549 59.305 58.9599V57.4759Z" fill="#0A759B"/>
<g style="mix-blend-mode:multiply">
<path d="M27.9167 55.6763L58.1151 51.5488C58.1151 51.5488 33.6946 54.2186 27.9167 55.6763Z" fill="#E8D3C1"/>
</g>
<g style="mix-blend-mode:multiply">
<path d="M27.5549 56.5203L57.7534 52.3928C57.7534 52.3928 33.3329 55.0604 27.5549 56.5203Z" fill="#E8D3C1"/>
</g>
<g style="mix-blend-mode:multiply">
<path d="M26.7788 57.4649L57.5077 53.1489C57.5077 53.1489 32.5568 56.0072 26.7788 57.4649Z" fill="#E8D3C1"/>
</g>
<g style="mix-blend-mode:multiply">
<path d="M26.7436 58.416L57.4616 53.7932C57.4616 53.7932 32.5194 56.9584 26.7436 58.416Z" fill="#E8D3C1"/>
</g>
<g style="mix-blend-mode:multiply">
<path d="M26.7436 59.2732L57.4616 54.4509C57.4616 54.4509 32.5194 57.8156 26.7436 59.2732Z" fill="#E8D3C1"/>
</g>
<g style="mix-blend-mode:multiply">
<path d="M26.7436 60.0734L57.4616 55.0056C57.4616 55.0056 32.5194 58.6179 26.7436 60.0734Z" fill="#E8D3C1"/>
</g>
<g style="mix-blend-mode:multiply">
<path d="M26.9782 60.6455L57.5076 55.626C57.5076 55.626 32.754 59.1879 26.9782 60.6455Z" fill="#E8D3C1"/>
</g>
<g style="mix-blend-mode:multiply">
<path d="M26.9782 61.3424L57.4616 56.2571C57.4616 56.2571 32.754 59.8804 26.9782 61.3424Z" fill="#E8D3C1"/>
</g>
<g style="mix-blend-mode:multiply">
<path d="M27.4122 62.1381L57.5821 56.6802C57.5821 56.6802 33.188 60.6849 27.4122 62.1381Z" fill="#E8D3C1"/>
</g>
<g style="mix-blend-mode:multiply">
<path d="M27.9167 62.844L57.7512 57.2085C57.7512 57.2085 33.6946 61.3863 27.9167 62.844Z" fill="#E8D3C1"/>
</g>
<path d="M-5.54593 51.4021C-5.54593 51.4021 14.7361 54.3875 18.96 55.0056C23.1839 55.6238 24.2032 55.444 24.0585 57.2085C23.9138 58.9731 23.3308 58.9621 17.3226 58.1357C11.3145 57.3094 -4.41708 54.2406 -5.54593 54.0587C-6.67478 53.8768 -6.17283 51.31 -5.54593 51.4021Z" fill="#3C9CC6"/>
<path d="M13.546 61.5398C13.5074 61.543 13.4685 61.543 13.4298 61.5398C8.00696 60.663 1.47935 59.2843 -0.392573 58.8832C-0.568817 58.8456 -0.730861 58.7591 -0.860011 58.6334C-0.98916 58.5077 -1.08015 58.3481 -1.12249 58.173C-1.37895 57.1033 -1.83706 54.4291 -0.561352 52.6931C-0.468195 52.5712 -0.34467 52.4758 -0.203119 52.4166C-0.0615689 52.3574 0.0930497 52.3363 0.245284 52.3556L13.9976 54.039C14.1014 54.0523 14.2013 54.0872 14.2908 54.1416C14.3803 54.196 14.4574 54.2685 14.517 54.3546C14.5765 54.4397 14.617 54.5366 14.6359 54.6387C14.6548 54.7407 14.6516 54.8457 14.6266 54.9464C14.1917 56.848 14.0681 58.8074 14.2606 60.7485C14.2717 60.8583 14.2577 60.9692 14.2197 61.0729C14.1818 61.1765 14.1208 61.2702 14.0414 61.3469C13.9076 61.4731 13.7299 61.5423 13.546 61.5398ZM0.133494 52.5243C0.0264305 52.5229 -0.0794872 52.5465 -0.175783 52.5933C-0.27208 52.6401 -0.356081 52.7088 -0.421068 52.7939C-1.65513 54.4642 -1.20579 57.077 -0.955903 58.1248C-0.921615 58.2687 -0.847528 58.4002 -0.742102 58.504C-0.636676 58.6079 -0.504162 58.68 -0.359694 58.7122C1.51223 59.1133 8.03546 60.4877 13.4496 61.3666C13.5311 61.3806 13.6147 61.3754 13.6938 61.3514C13.773 61.3274 13.8454 61.2854 13.9055 61.2286C13.9677 61.1712 14.0158 61.1001 14.0458 61.021C14.0759 60.9419 14.0871 60.8568 14.0787 60.7726C13.8841 58.8123 14.01 56.8334 14.4513 54.9136C14.4699 54.8365 14.4718 54.7564 14.4571 54.6786C14.4424 54.6007 14.4112 54.5269 14.3658 54.462C14.3203 54.3958 14.2611 54.34 14.1923 54.2984C14.1235 54.2569 14.0467 54.2304 13.9669 54.2209L0.216787 52.5353C0.189285 52.5299 0.161464 52.5262 0.133494 52.5243Z" fill="#B6E2FF"/>
<path d="M18.9254 61.3336C19.8103 61.3336 20.5277 60.3326 20.5277 59.0978C20.5277 57.8631 19.8103 56.8621 18.9254 56.8621C18.0405 56.8621 17.3231 57.8631 17.3231 59.0978C17.3231 60.3326 18.0405 61.3336 18.9254 61.3336Z" fill="#003E60"/>
<path d="M17.7216 59.1724C17.7216 57.9383 18.4384 56.9366 19.3239 56.9366C19.1954 56.8896 19.0597 56.8651 18.9228 56.8643C18.046 56.8643 17.3227 57.8638 17.3227 59.1C17.3227 60.3363 18.0394 61.3424 18.9294 61.3424C18.2345 61.0881 17.7216 60.2135 17.7216 59.1724Z" fill="#0A759B"/>
<g style="mix-blend-mode:multiply">
<path d="M28.2164 58.9553C28.2164 58.9553 28.4772 62.6575 28.4509 64.9766C29.1261 64.924 31.204 64.6303 31.204 64.6303C31.204 64.6303 30.6582 59.0211 28.2164 58.9553Z" fill="#EFD5BF"/>
</g>
<path d="M28.2164 58.9421C28.2164 58.9421 30.7065 60.5225 30.8467 67.9773C32.0129 66.7674 32.8195 66.0046 32.8195 66.0046L34.9238 67.2365C34.9238 67.2365 33.5384 59.3455 31.9076 58.2385C29.514 58.4928 28.2164 58.9421 28.2164 58.9421Z" fill="#EE6D4A"/>
<path d="M23.9576 53.1512C23.9576 53.1512 50.1097 49.9816 52.0386 49.2868C53.9675 48.5919 54.5528 42.8534 52.374 42.2726C50.1952 41.6917 25.5512 40.4028 25.5512 40.4028L-3.13702 41.3783L23.9576 53.1512Z" fill="#E0512F"/>
<path d="M52.039 49.2869C50.11 49.9861 23.9579 53.1556 23.9579 53.1556L11.2447 45.657L24.0171 43.1494L53.1832 42.8491C54.3405 44.4843 53.672 48.6907 52.039 49.2869Z" fill="#EE6D4A"/>
<path d="M-2.44434 42.0249C2.87552 42.1542 21.8709 42.6978 24.4618 43.9867C27.4779 45.486 26.4718 52.167 23.9577 52.4827C21.9213 52.7369 4.21041 50.0036 -2.44434 48.9558V42.0249Z" fill="#EEE6DE"/>
<path d="M23.0655 46.1436C20.6675 44.949 4.20384 44.39 -2.44434 44.2168V42.0249C2.87552 42.1542 21.8709 42.6978 24.4618 43.9867C27.2017 45.3479 26.6231 50.979 24.613 52.2416C25.2684 50.0715 24.9616 47.0949 23.0655 46.1436Z" fill="#EFD5BF"/>
<path d="M-3.13702 48.2039C4.97317 49.4884 21.4939 52.0026 23.8086 51.8667H23.916C24.5845 51.7812 25.2311 50.8211 25.5292 49.4752C25.9479 47.5814 25.6103 45.2864 24.1549 44.5631C21.8577 43.4211 4.34628 42.8095 -3.13702 42.6473V41.387C1.38496 41.4834 21.8928 41.9985 24.7664 43.4277C26.8532 44.4645 27.2609 47.3951 26.7567 49.6769C26.3183 51.6387 25.2662 52.9648 23.9993 53.1161L23.8634 53.127C21.119 53.287 3.19112 50.4967 -3.13702 49.4994V48.2039Z" fill="#F48369"/>
<g opacity="0.58">
<g style="mix-blend-mode:multiply">
<path d="M23.9578 45.0651L-2.11319 43.0266C-2.11319 43.0266 18.9711 44.1007 23.9578 45.0651Z" fill="#E8D3C1"/>
</g>
<g style="mix-blend-mode:multiply">
<path d="M24.271 45.7797L-1.79562 43.7412C-1.79562 43.7412 19.2843 44.8087 24.271 45.7797Z" fill="#E8D3C1"/>
</g>
<g style="mix-blend-mode:multiply">
<path d="M24.9419 46.5511L-1.58063 44.3767C-1.58063 44.3767 19.9552 45.5867 24.9419 46.5511Z" fill="#E8D3C1"/>
</g>
<g style="mix-blend-mode:multiply">
<path d="M24.9727 47.3732L-1.54987 44.9292C-1.54987 44.9292 19.986 46.4066 24.9727 47.3732Z" fill="#E8D3C1"/>
</g>
<g style="mix-blend-mode:multiply">
<path d="M24.9727 48.1118L-1.54987 45.5012C-1.54987 45.5012 19.986 47.1452 24.9727 48.1118Z" fill="#E8D3C1"/>
</g>
<g style="mix-blend-mode:multiply">
<path d="M24.9724 48.8025L-1.54361 45.9771C-1.54361 45.9771 19.9857 47.838 24.9724 48.8025Z" fill="#E8D3C1"/>
</g>
<g style="mix-blend-mode:multiply">
<path d="M24.7709 49.3065L-1.58508 46.5139C-1.58508 46.5139 19.782 48.342 24.7709 49.3065Z" fill="#E8D3C1"/>
</g>
<g style="mix-blend-mode:multiply">
<path d="M24.7709 49.9049L-1.53247 47.0554C-1.53247 47.0554 19.782 48.9383 24.7709 49.9049Z" fill="#E8D3C1"/>
</g>
<g style="mix-blend-mode:multiply">
<path d="M24.3963 50.6173L-1.64844 47.4302C-1.64844 47.4302 19.4074 49.6528 24.3963 50.6173Z" fill="#E8D3C1"/>
</g>
<g style="mix-blend-mode:multiply">
<path d="M23.9575 51.2594L-1.79562 47.8948C-1.79562 47.8948 18.9709 50.2862 23.9575 51.2594Z" fill="#E8D3C1"/>
</g>
</g>
<path d="M52.874 43.4562C52.874 43.4562 36.4542 44.7341 32.1536 45.1615C28.4514 45.532 27.4036 45.2755 27.5286 46.7945C27.6535 48.3136 29.7731 47.9914 35.0294 47.4302C40.8666 46.8055 51.8701 45.7512 52.8455 45.5386C53.821 45.3259 53.4154 43.3444 52.874 43.4562Z" fill="#F48369"/>
<path d="M50.318 49.6374C50.2989 49.6359 50.2807 49.6286 50.2658 49.6165C50.2509 49.6043 50.2401 49.5879 50.2348 49.5695C50.2311 49.5588 50.2298 49.5475 50.2308 49.5363C50.2319 49.5251 50.2353 49.5143 50.241 49.5045C50.2466 49.4947 50.2542 49.4863 50.2633 49.4797C50.2725 49.4732 50.2829 49.4686 50.2939 49.4664C50.5745 49.4051 51.4754 48.8264 51.6091 48.2017C51.813 47.0883 51.9527 45.9642 52.0278 44.8348C52.0692 44.514 52.0204 44.1879 51.8868 43.8933C51.7532 43.5986 51.5402 43.3471 51.2715 43.1668C51.2513 43.1556 51.236 43.1372 51.2287 43.1153C51.2214 43.0934 51.2226 43.0695 51.2321 43.0484C51.2373 43.0384 51.2446 43.0295 51.2534 43.0224C51.2622 43.0154 51.2724 43.0102 51.2834 43.0073C51.2943 43.0044 51.3057 43.0039 51.3169 43.0057C51.3281 43.0075 51.3388 43.0116 51.3483 43.0177C51.6448 43.217 51.881 43.4939 52.031 43.8182C52.1809 44.1425 52.239 44.5017 52.1987 44.8568C52.124 45.9957 51.9834 47.1294 51.7779 48.2521C51.6244 48.9294 50.6819 49.5673 50.3334 49.6352L50.318 49.6374Z" fill="#F9A0A0"/>
<path d="M49.1914 49.7558C49.1723 49.754 49.1542 49.7466 49.1394 49.7345C49.1245 49.7224 49.1136 49.7062 49.1081 49.6879C49.1044 49.6772 49.1031 49.6659 49.1041 49.6547C49.1052 49.6435 49.1087 49.6327 49.1143 49.6229C49.1199 49.6132 49.1275 49.6047 49.1366 49.5981C49.1458 49.5916 49.1562 49.587 49.1673 49.5848C49.4478 49.5235 50.3487 48.9448 50.4824 48.3201C50.6874 47.2069 50.8272 46.0827 50.9011 44.9533C50.9844 43.7762 50.1799 43.3049 50.1449 43.2852C50.125 43.2737 50.11 43.2553 50.1027 43.2335C50.0955 43.2117 50.0964 43.188 50.1054 43.1668C50.1106 43.1568 50.1179 43.1479 50.1267 43.1409C50.1355 43.1338 50.1458 43.1286 50.1567 43.1257C50.1676 43.1228 50.1791 43.1223 50.1902 43.1241C50.2014 43.1259 50.2121 43.13 50.2216 43.1361C50.5189 43.3347 50.7556 43.6115 50.9057 43.936C51.0557 44.2604 51.1133 44.6201 51.0721 44.9752C50.9984 46.1142 50.8578 47.2479 50.6512 48.3705C50.5 49.0478 49.5552 49.6857 49.2089 49.7536L49.1914 49.7558Z" fill="#F9A0A0"/>
<path d="M31.1583 46.8053C31.2614 48.9096 30.9567 50.4352 30.0799 52.397L32.2872 52.1186C32.8854 50.5239 33.1935 48.8351 33.1968 47.1319C33.21 45.7817 32.8242 44.8545 32.4034 44.2429L30.3539 44.3788C30.8309 45.1027 31.1084 45.9398 31.1583 46.8053Z" fill="#CC3A1D"/>
<path d="M34.3829 46.5951C34.5116 48.4439 34.1724 50.2954 33.3965 51.9785L35.5885 51.6979C36.1268 50.1626 36.4068 48.5486 36.417 46.9217C36.4302 45.5671 36.0422 44.6399 35.6214 44.0283L33.5719 44.1642C34.0528 44.8883 34.3327 45.7273 34.3829 46.5951Z" fill="#CC3A1D"/>
<g style="mix-blend-mode:multiply">
<path d="M22.9251 47.0576C22.9251 47.0576 22.6839 50.9286 22.7059 53.0899C22.0768 53.0416 20.0755 52.8509 20.0755 52.8509C20.0755 52.8509 20.6476 47.119 22.9251 47.0576Z" fill="#EFD5BF"/>
</g>
<path d="M22.9253 47.0576C22.9253 47.0576 20.6019 48.7958 20.4681 55.7443C19.3722 54.6155 18.6335 53.9009 18.6335 53.9009L16.6607 55.0473C16.6607 55.0473 17.9518 47.6933 19.4708 46.6609C21.7154 46.9064 22.9253 47.0576 22.9253 47.0576Z" fill="#FFBC00"/>
<path d="M5.58905 30.0131V39.9733C5.58905 39.9733 17.1275 41.3432 19.6307 40.6418C22.1339 39.9404 20.9634 36.5297 20.9634 34.9252C20.9634 33.3207 20.9305 29.4103 20.525 28.4765C20.1195 27.5428 18.219 27.9417 15.8802 28.1412C13.5414 28.3406 5.58905 30.0131 5.58905 30.0131Z" fill="#EEE6DE"/>
<path d="M20.9636 34.9252C20.9636 33.3207 20.9307 29.4103 20.5252 28.4765C20.1197 27.5428 18.2193 27.9417 15.8805 28.1412C13.5417 28.3406 5.57834 30.0131 5.57834 30.0131V31.6811C7.71987 31.2428 13.2786 30.3835 15.1374 30.2235C17.4762 30.024 19.1268 29.7851 19.5213 30.7123C19.9159 31.6395 20.0561 35.1751 20.0561 36.7796C20.0561 37.6564 20.409 39.0921 20.3104 40.3152C21.8886 39.2039 20.9636 36.3544 20.9636 34.9252Z" fill="#EFD5BF"/>
<g opacity="0.58">
<g style="mix-blend-mode:multiply">
<path d="M20.9016 28.63L5.69824 30.8219C5.69824 30.8219 17.9008 28.5971 20.9016 28.63Z" fill="#E8D3C1"/>
</g>
<g style="mix-blend-mode:multiply">
<path d="M21.2988 34.3618L5.95517 34.9492C5.95517 34.9492 18.3156 34.0352 21.2988 34.3618Z" fill="#E8D3C1"/>
</g>
<g style="mix-blend-mode:multiply">
<path d="M21.2986 33.7242L5.97256 34.7106C5.97256 34.7106 18.3088 33.4568 21.2986 33.7242Z" fill="#E8D3C1"/>
</g>
<g style="mix-blend-mode:multiply">
<path d="M21.2986 33.3404L5.97256 34.329C5.97256 34.329 18.3088 33.0664 21.2986 33.3404Z" fill="#E8D3C1"/>
</g>
<g style="mix-blend-mode:multiply">
<path d="M21.2943 32.8342L5.97702 33.9762C5.97702 33.9762 18.3001 32.5953 21.2943 32.8342Z" fill="#E8D3C1"/>
</g>
<g style="mix-blend-mode:multiply">
<path d="M21.2811 32.1613L5.99664 33.6277C5.99664 33.6277 18.2825 31.9859 21.2811 32.1613Z" fill="#E8D3C1"/>
</g>
<g style="mix-blend-mode:multiply">
<path d="M21.2811 31.6767L5.99664 33.1431C5.99664 33.1431 18.2825 31.5013 21.2811 31.6767Z" fill="#E8D3C1"/>
</g>
<g style="mix-blend-mode:multiply">
<path d="M21.2723 31.0937L5.99664 32.7004C5.99664 32.7004 18.2715 30.9359 21.2723 31.0937Z" fill="#E8D3C1"/>
</g>
<g style="mix-blend-mode:multiply">
<path d="M21.2723 30.5304L5.99664 32.1481C5.99664 32.1481 18.2715 30.3836 21.2723 30.5304Z" fill="#E8D3C1"/>
</g>
<g style="mix-blend-mode:multiply">
<path d="M21.2633 29.9627L6.00735 31.7513C6.00735 31.7513 18.2713 29.8487 21.2633 29.9627Z" fill="#E8D3C1"/>
</g>
<g style="mix-blend-mode:multiply">
<path d="M21.3401 29.3403L6.0863 31.1245C6.0863 31.1245 18.3305 29.2219 21.3401 29.3403Z" fill="#E8D3C1"/>
</g>
<g style="mix-blend-mode:multiply">
<path d="M20.8536 39.6204L5.76202 38.8137C5.76202 38.8137 17.8725 39.9294 20.8536 39.6204Z" fill="#E8D3C1"/>
</g>
<g style="mix-blend-mode:multiply">
<path d="M21.2395 34.8374L6.02521 35.2583C6.02521 35.2583 18.2409 35.2714 21.2395 34.8374Z" fill="#E8D3C1"/>
</g>
<g style="mix-blend-mode:multiply">
<path d="M21.2352 35.3481L6.02966 35.6134C6.02966 35.6134 18.2717 35.8654 21.2352 35.3481Z" fill="#E8D3C1"/>
</g>
<g style="mix-blend-mode:multiply">
<path d="M21.2219 36.0277L6.04483 35.9619C6.04483 35.9619 18.2474 36.4814 21.2219 36.0277Z" fill="#E8D3C1"/>
</g>
<g style="mix-blend-mode:multiply">
<path d="M21.2219 36.5143L6.04483 36.4507C6.04483 36.4507 18.2474 36.9702 21.2219 36.5143Z" fill="#E8D3C1"/>
</g>
<g style="mix-blend-mode:multiply">
<path d="M21.215 37.1149L6.05328 36.8958C6.05328 36.8958 18.2383 37.538 21.215 37.1149Z" fill="#E8D3C1"/>
</g>
<g style="mix-blend-mode:multiply">
<path d="M21.215 37.6696L6.05328 37.4504C6.05328 37.4504 18.2405 38.108 21.215 37.6696Z" fill="#E8D3C1"/>
</g>
<g style="mix-blend-mode:multiply">
<path d="M21.2086 38.2437L6.06445 37.8557C6.06445 37.8557 18.2298 38.636 21.2086 38.2437Z" fill="#E8D3C1"/>
</g>
<g style="mix-blend-mode:multiply">
<path d="M21.2742 38.8706L6.13223 38.4827C6.13223 38.4827 18.2975 39.263 21.2742 38.8706Z" fill="#E8D3C1"/>
</g>
<g style="mix-blend-mode:multiply">
<path d="M20.9741 40.0915L5.63046 39.3813C5.63046 39.3813 17.9887 40.4138 20.9741 40.0915Z" fill="#E8D3C1"/>
</g>
</g>
<path d="M19.3988 27.0474C19.3988 27.0474 44.547 30.8241 46.5965 31.5321C48.6459 32.2401 48.3763 37.5073 48.0234 39.4099C47.6705 41.3125 46.2852 41.8211 44.8144 41.8211C43.3436 41.8211 18.7785 41.5076 18.7785 41.5076C18.7785 41.5076 20.703 41.0364 21.0778 38.3534C21.4526 35.6705 20.8586 30.2849 20.7337 29.3664C20.6087 28.448 19.3988 27.0474 19.3988 27.0474Z" fill="#FFBC00"/>
<path d="M30.1588 30.3659C30.2684 31.2186 30.8273 36.2272 30.4788 38.7216C30.1785 40.8654 28.8173 41.4879 28.4403 41.6194L30.5446 41.6457C31.1013 41.3366 31.9825 40.5914 32.2148 38.9167C32.5634 36.4223 31.9956 31.4137 31.8948 30.5632C31.8247 30.013 31.3293 29.2809 30.9873 28.8272L29.1856 28.5466C29.5275 28.9872 30.0843 29.7785 30.1588 30.3659Z" fill="#FFD773"/>
<path d="M33.177 30.7867C33.2866 31.6175 33.8455 36.4989 33.497 38.9298C33.2427 40.7075 32.2191 41.4089 31.6865 41.661L33.725 41.6851C34.2752 41.3366 35.0226 40.6001 35.233 39.1205C35.5816 36.6896 35.0138 31.8082 34.9152 30.9796C34.8451 30.4514 34.3628 29.7477 34.0209 29.3072L32.2081 29.02C32.5457 29.4496 33.0981 30.2168 33.177 30.7867Z" fill="#FFD773"/>
<path d="M21.7352 34.2982C21.7177 33.8883 21.6979 33.4938 21.6848 33.1277L21.6651 32.3868C21.619 30.4557 21.573 28.4611 20.4617 27.5229C19.9597 27.0977 19.3109 26.9398 18.5328 27.0516C16.2992 27.3673 6.82997 29.0353 4.78708 29.3948V30.7516C6.12197 30.5171 16.4285 28.7044 18.7235 28.3756C19.2408 28.301 19.4709 28.4347 19.6002 28.5421C20.2578 29.0945 20.2951 30.859 20.3324 32.4175C20.3324 32.6718 20.3433 32.9239 20.3521 33.1715C20.363 33.5464 20.3981 34.1996 20.4025 34.3618C20.4025 34.7037 20.5822 39.537 19.78 40.0411C18.8879 40.4466 11.4966 40.0652 4.78927 39.458V40.8017C7.39768 41.0362 13.4036 41.536 17.2088 41.536C18.7717 41.536 19.9641 41.4505 20.3915 41.2291C22.0267 40.3787 21.8799 37.2858 21.7352 34.2982Z" fill="#F7A500"/>
<g style="mix-blend-mode:multiply">
<path d="M19.6046 36.0232C19.6046 36.0232 19.3656 39.3221 19.3854 41.4505C18.136 41.5359 16.7901 41.5359 16.7901 41.5359C16.7901 41.5359 17.3622 36.0824 19.6046 36.0232Z" fill="#EFD5BF"/>
</g>
<path d="M19.6045 36.0211C19.6045 36.0211 17.1759 38.0223 17.04 44.9028C15.9703 43.9537 15.236 43.3685 15.236 43.3685L13.3071 44.7932C13.3071 44.7932 14.6661 37.2705 16.1566 36.0254C17.3049 35.9592 18.456 35.9577 19.6045 36.0211Z" fill="#3989B4"/>
<g style="mix-blend-mode:overlay" opacity="0.37">
<path d="M21.9981 28.1739C21.9981 28.1739 44.7943 31.7512 45.6119 31.9002C46.4295 32.0493 46.5786 32.8691 46.7518 33.4916C46.9249 34.1141 46.2564 33.8576 44.882 33.7283C43.5077 33.599 24.4816 31.1813 23.4514 31.0366C22.4212 30.8919 22.2699 30.5149 22.0967 29.9516C21.9236 29.3883 21.6781 28.5531 21.711 28.38C21.7438 28.2068 21.814 28.1454 21.9981 28.1739Z" fill="white"/>
</g>
<path d="M23.4534 41.4944C23.4341 41.4946 23.4151 41.4899 23.3982 41.4807C23.3813 41.4715 23.3671 41.4581 23.3569 41.4418C23.3482 41.4291 23.3421 41.4149 23.3389 41.3998C23.3358 41.3848 23.3356 41.3693 23.3384 41.3543C23.3413 41.3392 23.3471 41.3248 23.3556 41.312C23.364 41.2992 23.3749 41.2881 23.3876 41.2795C23.5893 41.1458 24.3586 39.8614 24.4178 38.4782C24.477 37.0951 24.4748 34.0702 24.4178 31.5122C24.3608 29.0288 23.552 28.1213 23.5411 28.1125C23.5191 28.0904 23.5068 28.0604 23.5068 28.0292C23.5068 27.998 23.5191 27.9681 23.5411 27.9459C23.5518 27.9351 23.5647 27.9266 23.5788 27.9207C23.5929 27.9149 23.608 27.9119 23.6232 27.9119C23.6385 27.9119 23.6536 27.9149 23.6677 27.9207C23.6818 27.9266 23.6947 27.9351 23.7054 27.9459C23.7405 27.9832 24.5822 28.9148 24.6436 31.5013C24.705 34.0878 24.7006 37.128 24.6436 38.4804C24.5866 39.8329 23.8085 41.2686 23.5104 41.4681C23.4939 41.4814 23.4743 41.4905 23.4534 41.4944Z" fill="#CC8200"/>
<path d="M24.7512 41.6259C24.7241 41.6291 24.6967 41.6227 24.6739 41.6077C24.651 41.5927 24.6342 41.5701 24.6263 41.544C24.6185 41.5178 24.6201 41.4897 24.6309 41.4646C24.6417 41.4395 24.6611 41.419 24.6855 41.4067C24.8871 41.273 25.6565 39.9864 25.7157 38.6032C25.7749 37.2552 25.7749 34.1952 25.7157 31.6394C25.6587 29.1538 24.8389 28.2463 24.8389 28.2375C24.8281 28.2267 24.8195 28.2139 24.8137 28.1998C24.8078 28.1857 24.8048 28.1706 24.8048 28.1553C24.8048 28.1401 24.8078 28.1249 24.8137 28.1108C24.8195 28.0967 24.8281 28.0839 24.8389 28.0731C24.8497 28.0623 24.8625 28.0538 24.8766 28.0479C24.8907 28.0421 24.9058 28.0391 24.9211 28.0391C24.9364 28.0391 24.9515 28.0421 24.9656 28.0479C24.9797 28.0538 24.9925 28.0623 25.0033 28.0731C25.0384 28.1126 25.8801 29.042 25.9415 31.6285C26.0028 34.215 25.9985 37.2552 25.9415 38.6098C25.8845 39.9644 25.1063 41.3958 24.8082 41.5974C24.7922 41.612 24.7725 41.6218 24.7512 41.6259Z" fill="#CC8200"/>
<path d="M33.2605 13.1657C33.2605 13.1657 35.7199 15.259 35.8448 22.1154C36.9276 21.2123 37.6729 20.649 37.6729 20.649L39.6237 22.1482C39.6237 22.1482 38.2559 14.5926 36.7457 13.2906C35.5872 13.1841 34.4236 13.1424 33.2605 13.1657Z" fill="#FFBC00"/>
<path d="M26.9082 46.9084C26.9082 46.9084 33.1662 50.992 36.6492 61.8925C35.8798 63.6658 36.989 65.9476 39.4264 65.0095C41.1142 64.5886 50.4782 62.1008 56.9795 70.5398C66.6043 66.6644 77.5838 63.0192 77.5838 63.0192C77.5838 63.0192 77.9915 61.8925 77.9214 61.8443C77.6233 61.6251 76.3278 62.4098 75.6746 62.1139C71.9352 60.4261 63.5641 57.0724 58.4415 58.1903C56.4425 58.6134 55.3728 58.3065 55.3728 57.2105C55.3728 56.1146 51.9753 46.858 49.3713 44.4709C42.9291 44.5345 32.7497 46.5073 28.7472 46.5686C28.6048 46.5686 27.6666 45.6502 27.4058 45.6919C27.2392 45.7204 26.9082 46.9084 26.9082 46.9084Z" fill="#87510A"/>
<path d="M27.4122 45.6919C27.4122 45.6919 34.2357 50.569 37.7144 61.4739C36.9472 63.2472 37.7143 64.8363 40.1408 63.9004C41.8286 63.4773 51.1006 61.7084 57.4572 69.4526C67.082 65.5772 77.9168 61.8487 77.9168 61.8487C77.9168 61.8487 66.1 55.7113 59.3489 57.1952C57.3498 57.6183 56.2801 57.3136 56.2801 56.2154C56.2801 55.1173 52.8826 45.8629 50.2786 43.4758C42.2276 43.5504 27.4122 45.6919 27.4122 45.6919Z" fill="#6D3E06"/>
<path d="M50.5087 41.8123L30.7812 43.1274C30.0228 45.5276 38.7029 57.2041 38.7029 57.2041C39.1409 58.5618 39.6893 59.8813 40.3424 61.1496L57.4396 56.2024C55.6203 48.4889 50.5087 41.8123 50.5087 41.8123Z" fill="#EADBCE"/>
<path d="M57.4618 56.2572L57.4486 56.2046L40.3514 61.1518L40.4435 61.3359C49.6782 59.6109 58.1172 65.939 58.1172 65.939C58.1172 65.939 62.3564 64.5756 78.5023 58.4141C74.3595 56.3865 60.9535 55.4243 57.4618 56.2572Z" fill="#E5D1C3"/>
<path d="M58.5139 64.5362C58.5139 64.5362 51.3396 58.6574 40.849 60.9721C39.6215 55.7114 34.1241 44.6399 30.7945 43.123C29.7424 43.9626 28.4448 44.8941 28.4448 44.8941C28.4448 44.8941 35.9785 51.9084 38.1989 61.3337C39.8736 61.2636 40.6934 63.1026 40.6934 63.1026C40.6934 63.1026 46.3727 61.9058 50.7873 63.2802C55.2018 64.6545 57.9769 68.394 57.9769 68.394L58.0338 68.3743L78.2611 61.0882L78.4957 58.4141L58.5139 64.5362Z" fill="#D6B8A1"/>
<path d="M58.5051 64.5384C58.5051 64.5384 51.3396 58.6574 40.849 60.9721C39.6215 55.7114 34.1241 44.6399 30.7945 43.123C29.7424 43.9626 28.4448 44.8941 28.4448 44.8941C28.4448 44.8941 35.9785 51.9084 38.1989 61.3337C39.8736 61.2636 40.6934 63.1026 40.6934 63.1026C40.6934 63.1026 46.3727 61.9058 50.7873 63.2802C55.2018 64.6545 57.9768 68.394 57.9768 68.394L58.0338 68.3743L58.5183 64.534L58.5051 64.5384Z" fill="#DBC2AD"/>
<path d="M40.8488 61.1518C40.8488 61.1518 48.4197 57.9756 58.518 62.8439C69.2586 59.8607 77.6756 57.1997 77.6756 57.1997C77.6756 57.1997 66.306 54.1112 57.4659 56.2571C48.6258 58.4031 41.7255 60.5665 40.8488 61.1518Z" fill="#EADBCE"/>
<path d="M40.8486 60.9719C40.8486 60.9719 41.4734 50.5163 33.7248 41.6828C38.7444 41.0953 53.1235 40.8389 53.1235 40.8389C53.1235 40.8389 57.8296 49.3173 57.4658 56.2548C49.6756 58.232 40.8486 60.9719 40.8486 60.9719Z" fill="#EEE6DE"/>
<path d="M58.9062 55.9546C58.9062 55.9546 45.3972 59.5691 42.4973 60.6695C39.5973 61.7698 39.7924 68.6701 39.7924 68.6701L38.5452 66.8771L37.3769 67.9731C37.3769 67.9731 37.8767 62.2477 40.6648 60.2727C43.453 58.2978 56.3131 55.9458 58.9062 55.9546Z" fill="#FFBC00"/>
<g style="mix-blend-mode:multiply">
<path d="M55.0199 54.3283C53.2747 54.3196 51.5319 54.4567 49.8096 54.7382C49.9043 53.1587 49.7331 51.5746 49.3033 50.0518C48.1613 45.8454 45.577 42.8885 43.5341 43.4431C41.4912 43.9976 40.7569 47.8576 41.8989 52.0618C42.6902 54.9727 44.1697 57.283 45.6844 58.2497C47.188 59.2865 50.8004 60.0164 55.0199 60.0164C60.5896 60.0164 65.1028 58.745 65.1028 57.1668C65.1028 55.5886 60.5896 54.3283 55.0199 54.3283Z" fill="#EEE6DE"/>
</g>
<path d="M65.0085 40.1902C66.3703 42.055 67.1485 44.2817 67.2447 46.5888C67.3409 48.8959 66.7508 51.1797 65.549 53.1514C64.3471 55.1231 62.5876 56.6941 60.4929 57.6657C58.3981 58.6373 56.0623 58.966 53.7808 58.61C51.4993 58.254 49.3746 57.2294 47.6755 55.6659C45.9763 54.1023 44.779 52.0699 44.2349 49.8258C43.6909 47.5817 43.8245 45.2267 44.619 43.0586C45.4135 40.8905 46.833 39.0066 48.6982 37.6454C51.1987 35.8204 54.3217 35.0633 57.3803 35.5405C60.4389 36.0177 63.1828 37.6902 65.0085 40.1902Z" fill="#003E60"/>
<g style="mix-blend-mode:multiply">
<path d="M56.958 53.8658C56.9495 53.8452 56.9392 53.8253 56.9272 53.8064H56.9162L56.958 53.8658Z" fill="#C4C4C3"/>
</g>
<path d="M46.1093 40.8851C46.2036 40.7996 46.3022 40.7865 46.3987 40.712C46.5891 40.5312 46.7523 40.3237 46.8831 40.096C46.9817 39.9689 47.2755 39.5656 47.4618 39.6839C47.4618 39.7431 47.3631 39.9031 47.4179 39.9645C47.4727 40.0259 47.6108 39.9185 47.67 39.9075C47.6557 40.0399 47.6616 40.1737 47.6875 40.3043C47.8739 40.3284 47.8739 40.1157 47.8936 39.9886C47.9071 39.8481 47.9504 39.7121 48.0207 39.5897C48.0887 39.4968 48.1419 39.3941 48.1785 39.285C48.1958 39.1565 48.2289 39.0306 48.2772 38.9102C48.4148 38.7033 48.5695 38.5082 48.7397 38.3271C48.8273 38.2219 48.9457 38.1496 49.0334 38.0509C49.1211 37.9523 49.2109 37.8164 49.3074 37.7046C49.4477 37.5446 49.7217 37.2027 49.965 37.2377C49.8751 37.389 49.6471 37.4788 49.5682 37.6367C49.5134 37.7441 49.5682 37.7616 49.4564 37.8449C49.3446 37.9282 49.2372 37.9435 49.2504 38.0772C49.3118 38.0772 49.3731 38.0641 49.4016 38.1189C49.5222 38.1189 49.6208 37.9391 49.7041 38.0378C49.7874 38.1364 49.5989 38.257 49.6208 38.3556C49.6493 38.4871 49.84 38.246 49.8663 38.189C49.8982 38.0707 49.9407 37.9555 49.9935 37.8449C50.1024 37.7312 50.2196 37.6257 50.3442 37.5293C50.4278 37.436 50.5301 37.3613 50.6445 37.3101C50.7846 37.2519 50.9215 37.186 51.0544 37.1128C51.1399 37.0624 51.2297 36.9528 51.3327 36.9659L51.3481 36.9944C51.4095 36.944 51.4949 36.898 51.5563 36.8541C51.6177 36.8103 51.6878 36.7336 51.7383 36.7029C51.939 36.5978 52.1462 36.5056 52.3586 36.4267C52.4769 36.3741 52.5361 36.2557 52.6523 36.2426C52.7005 36.2426 52.7202 36.2645 52.7882 36.2426C52.8561 36.2207 52.8846 36.1571 52.9263 36.1308C53.0162 36.0738 53.5839 35.9927 53.5093 35.8612C53.4348 35.7297 52.8298 35.8612 52.7137 35.8612C52.5078 35.8714 52.3028 35.8949 52.0999 35.9313C50.2858 36.502 48.6366 37.5029 47.293 38.8488C46.8809 39.2905 46.4952 39.7559 46.1378 40.2429C46.0392 40.3744 45.9362 40.5037 45.8397 40.633C45.7236 40.8062 45.6205 40.9838 45.5066 41.1635C45.4591 41.2718 45.4238 41.385 45.4013 41.5011C45.5482 41.3695 45.7104 41.2512 45.8616 41.1262C45.9493 41.0517 46.0173 40.9575 46.1093 40.8851Z" fill="#3989B4"/>
<path d="M52.4486 38.1188C52.3083 38.0749 52.271 38.2021 52.1658 38.2371V38.1604C52.0976 38.1604 52.0295 38.1648 51.962 38.1736C51.9577 38.1284 51.9577 38.0829 51.962 38.0377C51.962 38.0267 52.0036 38.0179 52.0168 38.0092C52.0299 38.0004 51.997 37.9741 52.0036 37.9544C52.0672 37.904 52.0518 37.882 52.0584 37.8097C52.0457 37.7941 52.0317 37.7794 52.0168 37.7659C51.9641 37.7834 51.8392 37.836 51.8173 37.847C51.7954 37.8579 51.6836 37.8229 51.6858 37.939C51.5864 37.957 51.4899 37.988 51.3986 38.0311C51.2978 38.2043 51.5543 38.1341 51.4775 38.2788C51.4359 38.2514 51.3882 38.2345 51.3386 38.2295C51.2889 38.2246 51.2389 38.2317 51.1926 38.2503C51.1275 38.2802 51.0579 38.2988 50.9865 38.3051C51.0326 38.4651 50.9865 38.4454 50.9274 38.5572C50.9076 38.5857 50.8506 38.5791 50.8221 38.6185C50.7936 38.658 50.8441 38.7347 50.8221 38.7764C50.7257 38.9101 50.3443 38.9298 50.478 39.1709C50.5964 39.0635 50.7257 39.2235 50.8265 39.0876C50.901 39.1315 51.1531 38.9144 51.2057 38.8465C51.2583 38.7785 51.2583 38.6865 51.346 38.6273C51.3723 38.612 51.5016 38.6273 51.5499 38.6098C51.5126 38.772 51.2342 38.8947 51.2145 39.0482C51.1948 39.2016 51.3197 39.1315 51.3877 39.092C51.4556 39.0525 51.4425 38.8399 51.5367 39.0262C51.6573 38.9824 51.848 38.8903 51.883 38.761C51.9033 38.7899 51.9314 38.8125 51.964 38.8261C51.9966 38.8397 52.0324 38.8437 52.0672 38.8377C52.0979 38.7237 52.2381 38.7062 52.2184 38.555C52.2469 38.5658 52.2741 38.5797 52.2995 38.5966C52.3233 38.5665 52.3347 38.5284 52.3315 38.4901C52.3282 38.4519 52.3105 38.4163 52.282 38.3906C52.4025 38.3621 52.4332 38.2306 52.4486 38.1188Z" fill="#3989B4"/>
<path d="M56.8873 53.7696C56.8806 53.7486 56.8709 53.7286 56.8587 53.7102H56.8477L56.8873 53.7696Z" fill="url(#paint0_radial_161_15418)"/>
<path d="M66.5625 43.1164C65.7418 40.8382 64.233 38.8718 62.245 37.4893C60.2569 36.1069 57.8882 35.377 55.4669 35.4007C55.3768 35.4384 55.3003 35.5026 55.2477 35.5848C55.1819 35.701 55.1907 35.655 55.2477 35.7448C55.3047 35.8347 55.6006 35.8194 55.6488 35.8851C55.8242 36.1175 55.4011 36.032 55.4647 36.203C55.3924 36.2336 55.103 36.1635 55.2937 36.3608C55.2806 36.3608 55.2543 36.3608 55.2433 36.3783C55.2696 36.5844 55.4318 36.5164 55.5918 36.5405C55.7913 36.569 55.8943 36.6983 55.6927 36.8299C55.765 36.9285 55.7957 37.0995 55.6379 37.1192C55.5721 36.9285 55.5173 37.1411 55.4515 37.1192C55.3858 37.0973 55.3134 37.049 55.3989 36.9482C55.3012 36.9602 55.2021 36.9458 55.1118 36.9066C55.1337 36.8956 55.1753 36.8605 55.1973 36.8496C55.1315 36.8496 54.989 36.8934 54.9452 36.8496C54.8619 36.7707 54.9627 36.7159 55.0307 36.7027C54.9442 36.6943 54.8597 36.6713 54.7808 36.6348C54.8444 36.5734 54.9386 36.5471 55 36.4682C54.9299 36.3849 54.7304 36.409 54.6296 36.4024C54.4989 36.3695 54.3652 36.3504 54.2306 36.3454C54.0917 36.3502 53.9554 36.3841 53.8304 36.4449C53.7054 36.5057 53.5946 36.592 53.5051 36.6983C53.321 36.9482 53.0557 36.9416 52.7993 37.117C52.6305 37.2332 52.339 37.4962 52.3609 37.711C52.3762 37.7307 52.396 37.7001 52.4004 37.7001C52.3412 37.9478 52.7182 37.8031 52.6086 37.5927C52.6524 37.6146 52.6853 37.5927 52.7313 37.6321C52.7796 37.5729 52.9746 37.2113 53.0251 37.5028C53.1346 37.5028 53.1434 37.3866 53.2662 37.4063C53.2498 37.5761 53.2454 37.7467 53.253 37.9171C53.4349 37.9653 53.7024 37.7329 53.6256 37.5532C53.8448 37.5028 53.6607 37.2902 53.7221 37.1499C53.7632 37.0827 53.8134 37.0215 53.8711 36.9679C53.9369 36.9131 53.9479 36.843 54.075 36.8671C54.0969 37.0052 53.9544 37.071 53.9785 37.2113C54.2109 37.2354 54.1868 37.3735 54.4323 37.2617C54.5791 37.1959 54.7326 37.1148 54.7238 37.3778C54.8619 37.4283 55.0241 37.3581 55.1622 37.402C55.217 37.4195 55.2302 37.4831 55.2696 37.5028C55.3091 37.5225 55.4384 37.54 55.4472 37.551C55.7518 37.9083 55.0329 37.7286 55.0088 37.7527C54.9342 37.6036 54.6449 37.7198 54.5879 37.8338C54.5068 37.996 54.7194 38.0661 54.4608 38.0705C54.3841 38.0705 54.3599 38.0201 54.2525 38.0595C54.1824 38.088 54.1473 38.1582 54.0706 38.1911C53.9939 38.2239 53.8931 38.213 53.8229 38.2327C53.7528 38.2524 53.6169 38.3313 53.573 38.3313C53.4393 38.3313 53.3341 38.1823 53.1588 38.2327C53.0316 38.2678 53.047 38.3248 52.9505 38.3927C52.8541 38.4607 52.7774 38.419 52.7072 38.4629C52.5406 38.5703 52.6217 38.7675 52.5209 38.9012C52.4793 38.9582 52.3938 38.956 52.3456 39.013C52.2973 39.07 52.3017 39.1621 52.2425 39.2322C52.1607 39.2346 52.0791 39.2227 52.0014 39.1972C51.8962 39.344 51.6134 39.1511 51.5236 39.3769C51.5498 39.3749 51.5762 39.3749 51.6025 39.3769C51.5718 39.4076 51.5652 39.4646 51.5455 39.4931C51.905 39.4799 51.7165 39.8898 51.5214 39.9972C51.4512 39.9205 51.2868 40.0498 51.1904 40.0761C51.1509 40.0761 51.1378 40.1375 51.1071 40.1419C51.0764 40.1463 51.0545 40.0915 51.0238 40.0959C50.923 40.109 50.8528 40.1397 50.7827 40.0717C50.7056 40.1493 50.6465 40.2428 50.6095 40.3457C50.5599 40.4627 50.5303 40.5872 50.5219 40.714C50.4912 40.9222 50.1492 41.3716 50.6051 41.2949C50.7146 41.2501 50.8195 41.195 50.9186 41.1305C50.9602 41.1107 50.9668 41.0494 51.0019 41.034C51.037 41.0187 51.0918 41.0472 51.1268 41.034C51.2017 41.011 51.2721 40.9754 51.3351 40.9288C51.4184 40.8499 51.4753 40.76 51.5543 40.6745C51.6416 40.5896 51.709 40.4862 51.7515 40.372C52.1899 40.3918 51.848 40.0652 52.1242 39.96C52.2688 39.9052 52.3434 40.0411 52.488 39.96C52.5538 39.9183 52.5363 39.8328 52.591 39.7912C52.6458 39.7495 52.7006 39.778 52.7576 39.7517C52.9001 39.6903 52.9045 39.6443 53.0733 39.6947C53.1171 39.6947 53.15 39.7561 53.1982 39.7758C53.2464 39.7956 53.31 39.7758 53.3692 39.7934C53.4919 39.8306 53.9062 40.1594 53.9413 39.8219C53.7703 39.8219 53.4218 39.7539 53.4919 39.5106C53.8909 39.3418 54.1188 39.6421 54.4016 39.8175C54.5389 39.8878 54.6547 39.9938 54.737 40.1244C54.8115 40.2844 54.737 40.4948 54.9978 40.4378C55.0137 40.3928 55.0262 40.3466 55.0351 40.2997C55.0351 40.2866 55.0088 40.269 55.0044 40.2581C55.1775 40.1791 55.0044 40.1419 55.0044 40.0674C55.0044 39.9928 54.9342 40.0476 54.9562 39.9578C54.9562 39.9205 55.0877 39.9271 55.103 39.8767C55.1403 39.7517 54.9342 39.7495 55.1293 39.6684C55.2367 39.6246 55.377 39.6575 55.3178 39.7934C55.3503 39.8053 55.377 39.8292 55.3925 39.8601C55.408 39.8911 55.4111 39.9268 55.4011 39.96H55.4778C55.5085 40.0937 55.4274 40.3304 55.5809 40.3983C55.5777 40.4304 55.5777 40.4627 55.5809 40.4948C55.7628 40.5211 55.8702 40.4246 56.0346 40.372C56.173 40.3105 56.3217 40.2756 56.473 40.269C56.5629 40.2887 56.5409 40.3764 56.6396 40.3699C56.7031 40.3699 56.7689 40.2471 56.8193 40.223C57.078 40.098 56.9552 40.2778 57.0385 40.4422C57.0095 40.4379 56.9809 40.4313 56.953 40.4225C57.0144 40.4729 57.0933 40.5145 57.1481 40.5605C57.0433 40.5624 56.9386 40.5565 56.8347 40.543C56.9114 40.5627 57.1196 40.6197 57.1108 40.7622C57.151 40.7644 57.1912 40.7644 57.2314 40.7622C57.2314 40.7819 57.2314 40.8017 57.2314 40.8214C57.216 40.8416 57.2021 40.8628 57.1897 40.885H57.0911C57.0911 40.977 57.0319 41.0077 56.9486 41.0011C56.9377 40.9858 56.9289 40.9639 56.9179 40.9463C56.8215 41.0143 56.3656 41.2138 56.3393 41.0494C56.2735 41.0494 56.245 41.0143 56.1815 41.0494C56.1653 41.0122 56.1382 40.9809 56.1037 40.9598C56.0692 40.9386 56.029 40.9285 55.9886 40.931C55.9294 41.0099 55.9754 41.102 55.9338 41.1633C55.8921 41.2247 55.7869 41.2444 55.7453 41.3387C55.7702 41.3637 55.7841 41.3976 55.7841 41.4329C55.7841 41.4683 55.7702 41.5021 55.7453 41.5272C55.5896 41.5272 55.6378 41.3672 55.5392 41.308C55.4976 41.2839 55.445 41.3212 55.3967 41.308C55.3316 41.2742 55.2642 41.2449 55.1951 41.2203C54.7874 41.1633 55.1797 41.6434 54.8838 41.6784C54.8444 41.6456 54.1188 42.0072 54.1934 41.7289C53.9742 41.7025 54.1736 41.5995 54.1188 41.5097C54.064 41.4198 53.9172 41.4636 53.8229 41.468C53.7287 41.4724 53.1807 41.4943 53.3626 41.2028C53.3385 41.2028 53.3122 41.1809 53.2859 41.1743C53.3232 41.0077 53.2464 40.9551 53.1763 40.828C53.0623 40.7754 53.0119 40.874 52.9111 40.9091C52.8001 40.9319 52.6866 40.94 52.5735 40.9332C52.4332 40.9332 52.0781 40.9113 51.9948 41.091C51.7804 41.1291 51.5841 41.236 51.4359 41.3957C51.2956 41.5009 51.3175 41.5097 51.1619 41.4614C51.0676 41.4329 50.9427 41.2905 50.8726 41.4614C50.752 41.4373 50.7191 41.5031 50.6534 41.5688C50.5814 41.6279 50.5133 41.6916 50.4495 41.7595C50.364 41.8998 50.3531 42.1979 50.1799 42.2768C50.1931 42.3908 50.0484 42.496 49.9892 42.5837C49.9084 42.6998 49.7935 42.7879 49.6604 42.8358C49.6714 42.9454 49.4938 43.1076 49.4105 43.1799C49.4368 43.1799 49.461 43.204 49.4894 43.2106C49.461 43.3706 49.2198 43.5131 49.1628 43.6797C49.1979 43.6797 49.2461 43.6906 49.2812 43.6797C49.2681 43.8002 49.3623 43.8989 49.3009 44.0041C49.1475 44.0041 49.108 44.151 48.9765 44.1773C49.0006 44.2452 48.9612 44.2408 49.0313 44.2825C48.9659 44.3942 48.9312 44.5212 48.9305 44.6507C48.959 44.8239 49.0445 44.8151 48.9787 45.0036C48.891 45.2513 48.6938 45.4113 48.6872 45.6612H48.7617C48.7871 45.6879 48.8065 45.7197 48.8186 45.7545C48.8307 45.7892 48.8352 45.8262 48.8319 45.8629C48.8604 45.8629 48.8998 45.8629 48.9283 45.8629C48.9474 45.9004 48.9561 45.9424 48.9534 45.9844C48.9507 46.0265 48.9367 46.067 48.913 46.1018C48.9299 46.1609 48.9652 46.2131 49.0138 46.2508C49.0138 46.2267 49.0489 46.196 49.0598 46.1741C49.2681 46.1412 49.3338 46.4722 49.4346 46.6125C49.4943 46.6908 49.5478 46.7736 49.5947 46.8602C49.6429 46.9435 49.6582 47.0641 49.6977 47.1298C49.7371 47.1956 49.8489 47.235 49.9169 47.3161C49.9848 47.3972 49.9673 47.5156 50.1492 47.5353C50.3312 47.555 50.6336 47.4783 50.6293 47.2701C50.752 47.2372 50.7849 47.3468 50.8748 47.349C50.9646 47.3512 51.0041 47.3074 51.0939 47.3074C51.2364 47.3074 51.4227 47.4674 51.4688 47.1868C51.5959 47.1868 51.6507 47.0728 51.7362 47.0027C51.8217 46.9325 51.9817 46.915 52.0628 46.847C52.2053 46.7265 52.2294 46.2749 52.4376 46.5446C52.4388 46.5628 52.4388 46.5811 52.4376 46.5994C52.6568 46.5731 52.7379 46.8646 52.8015 47.0005C52.8278 47.0531 52.8541 47.2789 52.8672 47.2876C52.979 47.3578 53.1193 47.2328 53.1215 47.1232C53.2114 47.0991 53.2421 47.178 53.321 47.1583C53.3999 47.1386 53.4218 47.0597 53.5117 47.0377C53.5893 47.0235 53.6694 47.0295 53.744 47.0553C53.8777 47.1145 53.7922 47.1035 53.8646 47.2043C53.9615 47.3167 54.0266 47.4529 54.0531 47.5989C54.0684 47.783 53.9369 47.9364 53.9259 48.1162C53.9242 48.1859 53.9412 48.2548 53.9751 48.3157C54.0091 48.3766 54.0587 48.4273 54.1188 48.4625C54.2306 48.559 54.2788 48.6444 54.4038 48.7431C54.5287 48.8417 55.2389 48.925 54.9649 49.1683C55.2521 49.1793 55.0307 49.3568 55.103 49.4905C55.1076 49.5008 55.1135 49.5104 55.1205 49.519C55.046 49.6527 55.0351 49.8303 55.2499 49.861C55.2447 49.9339 55.2447 50.0072 55.2499 50.0802C55.2499 50.113 55.1797 50.1372 55.1841 50.1613C55.1885 50.1854 55.2849 50.2446 55.2871 50.2709C55.2886 50.338 55.2763 50.4047 55.251 50.4668C55.2258 50.529 55.1881 50.5854 55.1403 50.6325C55.0307 50.7772 54.9364 50.8167 54.8816 50.992C54.8532 51.0477 54.8382 51.1092 54.8378 51.1718C54.8378 51.1718 54.8751 51.426 54.8751 51.426C54.9277 51.5422 55.1688 51.6123 55.2849 51.6606C55.4581 51.7285 55.5041 51.8447 55.6181 51.9082C55.6861 51.9433 55.7738 51.9083 55.8505 51.9236C55.9272 51.9389 55.9798 51.9915 56.0587 52.0069C56.2604 52.0485 56.4094 51.9937 56.2231 52.1932C56.1661 52.2546 56.0587 52.2349 56.0609 52.3554C56.2801 52.4562 55.822 52.6842 56.0127 52.8617C56.085 52.9319 56.2319 52.8881 56.3042 52.9582C56.3765 53.0283 56.3042 53.2037 56.4489 53.276C56.4511 53.3081 56.4511 53.3404 56.4489 53.3725C56.5168 53.4141 56.4861 53.3944 56.5322 53.4558C56.6574 53.4938 56.7639 53.5775 56.8303 53.6903C56.8719 53.7078 56.8522 53.7319 56.8807 53.7911C56.8916 53.8087 56.8522 53.8569 56.8631 53.8898C56.8741 53.9226 56.9355 53.9051 56.9442 53.9292C56.9814 54.0369 56.9963 54.151 56.9881 54.2646C57.1525 54.2865 57.3235 54.315 57.3191 54.5123C57.4835 54.5342 57.4506 54.3501 57.4988 54.2471C57.5479 54.1528 57.6107 54.0664 57.6851 53.9906C57.8035 53.8481 57.7246 53.8832 57.9175 53.8306C58.0402 53.7977 58.163 53.7933 58.1695 53.6267C58.4147 53.5955 58.6502 53.5118 58.86 53.3812C58.9807 53.3416 59.0858 53.2649 59.1603 53.162C59.2633 52.9998 59.1778 52.9867 59.1998 52.8376C59.0003 52.7653 59.2304 52.522 58.9981 52.476C59.0661 52.237 59.4847 52.3927 59.5176 52.1735C59.6483 52.1435 59.7672 52.0756 59.8595 51.9784C59.9075 51.9353 59.9401 51.8778 59.9524 51.8144C59.9647 51.7511 59.9559 51.6856 59.9275 51.6277C59.8946 51.5619 59.8376 51.5115 59.8025 51.4436C59.7675 51.3756 59.8288 51.3844 59.7456 51.2945C59.6623 51.2046 59.4803 51.2287 59.4475 51.0753C59.4036 50.8715 59.6425 50.8934 59.785 50.8561C60.0042 50.786 59.9669 50.683 60.1094 50.5229C60.162 50.4638 60.265 50.4638 60.3023 50.4155C60.3396 50.3673 60.3198 50.227 60.3615 50.1525C60.4031 50.078 60.4733 50.0802 60.5084 49.9837C60.5308 49.9256 60.5434 49.8641 60.5456 49.8018C60.5105 49.7645 60.5653 49.5651 60.5456 49.4664C60.5237 49.3152 60.4316 49.2034 60.4799 49.0543C60.4514 49.0543 60.4316 49.0346 60.4031 49.028C60.4886 48.8088 60.2585 48.7825 60.1094 48.7409L60.0919 48.7058C60.0395 48.6263 59.9785 48.5528 59.91 48.4866C59.8332 48.4077 59.7258 48.3946 59.6908 48.2674C59.579 48.2302 59.0682 48.3288 59.2831 48.0482C59.3532 47.954 59.5023 48.0044 59.5899 47.9606C59.7258 47.8948 59.6908 47.8992 59.739 47.7414C59.7828 47.7589 59.8508 47.7414 59.8968 47.7545C59.9538 47.6296 59.8968 47.4564 59.945 47.3424C59.9735 47.2876 60.0831 47.246 60.127 47.1978C60.1764 47.1449 60.2125 47.081 60.2322 47.0114C60.2776 46.8851 60.3528 46.7716 60.4514 46.6805C60.508 46.6428 60.5534 46.5905 60.5827 46.5292C60.612 46.4678 60.6242 46.3997 60.618 46.3319C60.5858 46.3297 60.5536 46.3297 60.5215 46.3319C60.5084 46.218 60.6136 46.1741 60.6245 46.0689C60.8985 46.0141 60.7407 45.8015 60.8284 45.6502C60.87 45.5735 61.0015 45.567 61.0322 45.5012C61.0629 45.4354 60.9709 45.3083 60.9993 45.1987C61.1147 45.1843 61.2214 45.1303 61.3013 45.0459C61.3813 44.9616 61.4295 44.8521 61.4377 44.7362L61.3808 44.7143C61.3808 44.5082 61.5473 44.3285 61.589 44.1159C61.6306 43.9033 61.7556 43.6183 61.6635 43.4583C61.4575 43.4254 61.5386 43.6775 61.4443 43.7608C61.3501 43.8441 61.1177 43.7323 61.1133 43.9274C60.9292 43.9493 60.8941 44.1992 60.7188 44.2584C60.5434 44.3175 60.2804 44.1926 60.2804 44.4885C60.0831 44.4622 59.5527 44.7778 59.4781 44.4754C59.5746 44.4315 59.9976 44.2036 59.6425 44.1773C59.6579 44.1417 59.6636 44.1026 59.659 44.0641C59.6544 44.0256 59.6396 43.989 59.6162 43.9581C59.3773 43.9252 59.3181 44.2474 59.1778 43.9164C59.0967 43.9164 59.0354 43.9274 58.9586 43.9318C58.9696 43.7345 58.9214 43.7279 58.8096 43.6074C58.7373 43.5263 58.7548 43.6074 58.7066 43.4736C58.684 43.3733 58.6686 43.2715 58.6605 43.169C58.547 43.161 58.4385 43.119 58.3493 43.0484C58.3076 43.0002 58.3493 42.9081 58.3098 42.8752C58.2704 42.8424 58.1805 42.8424 58.1257 42.8139C57.9284 42.7196 57.7312 42.6845 57.5273 42.5815C57.6106 42.3623 57.2708 42.4325 57.1766 42.3755C56.9706 42.2483 57.0648 42.13 57.2139 42.0686C57.3629 42.0072 57.5821 42.0905 57.5185 41.97C57.4243 41.7902 57.2555 41.9327 57.113 41.8998C57.0319 41.7486 57.2292 41.6565 57.4265 41.5645C57.5317 41.6171 57.615 41.7837 57.6698 41.8406C57.7246 41.8976 57.889 41.9963 57.889 42.1278C57.9408 42.1202 57.9938 42.1303 58.0391 42.1566C58.0845 42.1829 58.1196 42.2237 58.1389 42.2725C58.4129 42.2505 58.6605 42.4369 58.9017 42.5465C59.031 42.6034 59.6316 42.8139 59.6316 42.8928C59.9012 42.9235 59.8376 43.1427 59.796 43.3312C60.0042 43.3421 59.7346 43.6578 59.9998 43.7498C60.2035 43.7966 60.4172 43.7669 60.6004 43.6665C60.7159 43.6252 60.8337 43.5908 60.9533 43.5635C61.0125 43.5482 61.0892 43.5635 61.1396 43.5153C61.2361 43.443 61.1616 43.432 61.201 43.3772C61.3128 43.2238 61.5188 43.1361 61.6613 42.9826C61.5364 42.8555 61.7621 42.7021 61.8016 42.5662C61.5824 42.5662 61.6131 42.3075 61.6547 42.1563C61.6219 42.1694 61.5495 42.1563 61.5167 42.1716C61.5167 42.0971 61.7139 41.514 61.4136 41.799C61.4246 41.6105 61.315 41.6982 61.2229 41.6762C61.0651 41.6368 61.1199 41.7091 61.0585 41.5316C61.0125 41.4001 60.9555 41.1041 60.7495 41.1611C60.6903 41.3102 60.7232 41.5864 60.4558 41.5513C60.3659 41.5403 60.3703 41.4439 60.2914 41.4264C60.2124 41.4088 60.1598 41.4768 60.0568 41.4264C59.9538 41.376 59.853 41.1546 59.7719 41.0735C59.6908 40.9924 59.4255 40.9376 59.5198 40.7249C59.3006 40.6964 59.4255 40.3348 59.6491 40.4071C59.7982 40.4575 59.7675 40.7162 60.0174 40.6263C60.0174 40.7841 60.0174 40.8104 60.1028 40.8937C60.1883 40.977 60.2607 40.8937 60.322 41.034C60.4777 41.08 60.5544 40.9091 60.7078 40.9178C60.7862 41.0067 60.8797 41.0809 60.984 41.137C61.1255 41.1611 61.27 41.1611 61.4114 41.137C61.4882 41.1063 61.4597 41.0143 61.5254 40.9792C61.5912 40.9441 61.6482 40.9902 61.7052 40.9792C61.8323 40.9551 62.0537 40.8499 61.9989 41.1195C62.1049 41.1243 62.2101 41.1413 62.3123 41.1699C62.503 41.1831 62.4614 41.1305 62.5951 41.2729C62.571 41.4921 63.1869 41.5228 63.3382 41.4921C63.4302 41.593 63.6078 41.5601 63.5749 41.7354C63.7174 41.7946 63.5924 41.8691 63.6297 41.9546C63.6669 42.0401 63.7305 42.0357 63.8379 42.1278C63.8642 42.1497 63.873 42.2199 63.8818 42.2264C63.9223 42.2499 63.9648 42.2697 64.0089 42.2856C64.0735 42.3675 64.1042 42.4711 64.0944 42.5749C64.1908 42.5998 64.2759 42.6568 64.3357 42.7364C64.3955 42.8161 64.4263 42.9138 64.4232 43.0133C64.4232 43.1054 64.3574 43.1887 64.3969 43.2676C64.456 43.3925 64.5393 43.3246 64.6161 43.3904C64.7892 43.5284 64.7191 43.6841 64.8703 43.7893V42.1979C64.6972 42.1366 64.9076 41.9415 64.8024 41.8143C64.7278 41.7267 64.4692 41.7179 64.3771 41.639C64.3314 41.5856 64.2951 41.5248 64.2697 41.4592C64.2303 41.3913 64.1141 41.3825 64.1689 41.2554C64.1996 41.1852 64.3114 41.2181 64.3508 41.148C64.3903 41.0778 64.3508 40.9682 64.3749 40.8806C64.4034 40.8806 64.4429 40.8806 64.4736 40.8806C64.4736 40.76 64.4297 40.5627 64.6183 40.6175C64.5963 40.771 64.6402 41.023 64.8243 41.0121C64.9076 41.1787 64.7147 41.2664 64.8637 41.4088C64.9251 41.4658 65.0281 41.4088 65.0829 41.479C65.1377 41.5491 65.1005 41.6521 65.1005 41.7091C65.3065 41.7968 65.3197 42.0686 65.5718 42.0204C65.5564 41.9546 65.5718 41.913 65.5104 41.8582C65.6529 41.7135 65.62 41.948 65.6419 41.9831C65.6813 42.0511 65.7537 42.1015 65.7822 42.1892C65.8107 42.2768 65.7822 42.3864 65.7975 42.4654C65.8129 42.5443 65.8874 42.5859 65.8677 42.7043C66.0101 42.7393 66.4025 43.0922 66.5625 43.1164ZM56.8062 39.5654C56.587 39.3287 56.6527 39.7057 56.5322 39.7714C56.4116 39.8372 56.3393 39.7101 56.245 39.6903C56.1508 39.6706 56.0587 39.7145 55.9754 39.6903C55.8132 39.6377 55.7387 39.4931 55.605 39.3988C55.4713 39.3046 55.4647 39.3857 55.4099 39.2739C55.388 39.2278 55.5743 39.1687 55.3989 39.1314C55.4033 39.0987 55.4033 39.0655 55.3989 39.0328C55.274 39.0196 55.0307 39.1665 55.0044 39.013C54.8619 39.013 54.737 39.0284 54.5967 39.013C54.6537 38.7632 54.897 38.7566 55.114 38.7259C55.331 38.6952 55.5326 38.6382 55.7124 38.6053C55.7694 38.6053 55.9316 38.5418 55.9601 38.544C56.0565 38.544 56.1157 38.6207 56.2056 38.6492C56.2954 38.6777 56.3458 38.6645 56.4445 38.6053C56.4883 38.579 56.5409 38.3861 56.6264 38.5396L56.7294 38.5812C56.7536 38.6097 56.7799 38.6075 56.7733 38.6601C56.7974 38.6601 56.8259 38.6601 56.85 38.6601C56.8741 38.6601 56.8653 38.7303 56.8719 38.7566C56.839 38.7785 56.8368 38.7982 56.8149 38.8201C56.8631 38.8201 56.8895 38.853 56.9333 38.864C56.9114 38.9933 56.4752 38.9802 56.7492 39.1139C56.9223 39.1972 57.1678 39.0876 57.3498 39.1139C57.3421 39.139 57.3362 39.1646 57.3322 39.1906C57.4221 39.1906 57.455 39.1906 57.4791 39.2739H57.5142C57.5448 39.7035 56.861 39.2388 56.8062 39.5654ZM58.6562 39.7276C58.426 39.6202 58.4852 39.5391 58.437 39.3177C58.3887 39.0963 58.1498 39.07 58.163 38.8662C58.0358 38.8662 57.8999 38.8158 57.9438 38.6579C57.7903 38.693 57.764 38.5922 57.7027 38.5067C57.7158 38.4059 57.7969 38.2371 57.6588 38.1954C57.7312 38.0727 57.8386 38.053 57.786 37.8908C57.9306 37.8908 57.992 37.7439 58.1301 37.7176C58.1301 37.6891 58.1411 37.6496 58.1301 37.6211C58.2309 37.6211 58.3361 37.6211 58.437 37.6211C58.4545 37.6562 58.4216 37.6453 58.4172 37.6606L58.4392 37.7834C58.5707 38.0223 58.0863 38.1056 58.1213 38.3094C58.1717 38.5966 58.597 38.6053 58.8293 38.6163C58.8189 38.6586 58.823 38.7032 58.8409 38.7429C58.8588 38.7826 58.8894 38.8152 58.928 38.8355C58.6584 38.9823 59.1033 39.1336 59.2239 39.1292C59.2239 39.1577 59.2239 39.1972 59.2239 39.2257C59.3313 39.2257 59.4233 39.1533 59.5264 39.2125C59.4694 39.4733 59.7894 39.3703 59.6162 39.6399C59.6652 39.6396 59.7136 39.6512 59.7571 39.6738C59.8007 39.6963 59.8381 39.7291 59.8661 39.7693C59.5768 40.0674 58.9674 39.8767 58.6562 39.7276Z" fill="#3989B4"/>
<path d="M60.754 52.6492C60.8115 52.6749 60.8759 52.6806 60.9371 52.6655C60.9982 52.6505 61.0526 52.6154 61.0916 52.5659C61.131 52.5242 61.1398 52.4475 61.1749 52.4146C61.2099 52.3818 61.3086 52.3774 61.3414 52.3335C61.3743 52.2897 61.3414 52.1954 61.3809 52.1494C61.4204 52.1034 61.519 52.1231 61.5738 52.0727C61.6922 51.9675 61.6264 51.871 61.6527 51.7198C61.6943 51.4743 61.953 51.4568 62.17 51.3362C62.2642 51.2858 62.4089 51.2354 62.341 51.117C62.273 50.9986 62.1327 51.1039 62.0122 51.0732C62.0363 50.8847 62.0845 50.854 61.8456 50.8233C61.8431 50.7952 61.8466 50.7669 61.8558 50.7402C61.8649 50.7135 61.8796 50.6891 61.8988 50.6684C61.918 50.6477 61.9414 50.6313 61.9673 50.6203C61.9932 50.6092 62.0212 50.6037 62.0494 50.6041C62.0209 50.5493 62.0494 50.4967 62.0319 50.4441C62.2401 50.4441 62.1963 50.1679 62.216 50.0473C62.2412 49.9755 62.2624 49.9023 62.2796 49.8281C62.2796 49.7492 62.2467 49.6616 62.2533 49.609C62.2686 49.4621 62.3892 48.833 62.0955 48.7519C62.0636 48.7084 62.0277 48.668 61.9881 48.6313L61.8631 48.6511C62.0407 48.8703 61.9442 48.89 61.8434 49.0895C61.7754 49.2188 61.8544 49.4292 61.7667 49.5498C61.7141 49.6177 61.5935 49.6331 61.5321 49.6901C61.4722 49.7556 61.422 49.8294 61.3831 49.9092C61.3502 49.9706 61.3327 50.089 61.2998 50.1284C61.234 50.2249 61.1332 50.2337 61.0565 50.3038C60.8855 50.4638 60.9469 50.5778 60.9885 50.7553C61.0206 50.9108 61.0206 51.0712 60.9885 51.2266C60.971 51.3077 60.9272 51.3954 60.903 51.4765C60.903 51.4765 60.8483 51.6102 60.8439 51.5839C60.8439 51.6277 60.925 51.6803 60.925 51.6979C60.9227 51.862 60.8946 52.0247 60.8417 52.1801C60.811 52.3116 60.8395 52.533 60.754 52.6492Z" fill="#3989B4"/>
<path d="M48.5208 56.2155C48.4726 56.1585 48.4353 56.0511 48.3871 55.9832C48.2945 55.8426 48.1942 55.7073 48.0868 55.5777C47.9619 55.433 47.769 55.3278 47.6923 55.1568C47.6155 54.9859 47.6309 54.7579 47.4314 54.6987C47.4577 54.5409 47.3152 54.4795 47.3415 54.3107C47.2456 54.2784 47.1606 54.22 47.096 54.142C47.0393 54.0563 47.0026 53.9589 46.9886 53.857C46.9777 53.8176 46.9097 53.7912 46.8944 53.7321C46.8944 53.7321 46.9295 53.6093 46.9316 53.6027C46.9667 53.4778 46.9316 53.4581 47.0763 53.3945C47.221 53.3309 47.2451 53.4493 47.2955 53.2937C47.2946 53.2004 47.2713 53.1087 47.2276 53.0263C47.1399 52.8268 47.1399 52.6997 46.901 52.6821C46.8023 52.6142 46.8483 52.5528 46.8133 52.4629C46.7629 52.3248 46.7103 52.1933 46.673 52.0487C46.6555 51.9741 46.673 51.8295 46.6335 51.7768C46.5941 51.7242 46.5064 51.7308 46.4604 51.6804C46.296 51.5007 46.4078 51.4919 46.5064 51.3845C46.554 51.3405 46.5889 51.2845 46.6072 51.2223C46.6072 51.2223 46.5612 51.1675 46.5722 51.1346C46.5831 51.1017 46.6555 51.093 46.6686 51.0689C46.7568 50.9413 46.8166 50.7963 46.844 50.6436C46.8549 50.477 46.7519 50.3784 46.7344 50.2228C46.7168 50.0671 46.8045 49.9816 46.605 49.8348C46.5108 49.7646 46.2587 49.7296 46.2346 49.6156C46.0899 49.5849 45.8861 49.7844 45.8817 49.5345C45.6625 49.4643 45.6735 49.7537 45.474 49.7142C45.428 49.5871 45.2833 49.2758 45.143 49.2364C45.1167 49.1027 45.2965 48.7476 45.0181 48.798V48.5788C44.9611 48.5415 44.972 48.5635 44.9589 48.4911C44.9107 48.239 45.0838 47.8335 44.7989 47.6582C44.6761 47.5815 44.5337 47.702 44.4043 47.5968C44.275 47.4916 44.3013 47.2549 44.321 47.1277C44.3541 46.9639 44.3301 46.7938 44.2531 46.6455C44.1873 46.4723 44.2377 46.3474 44.1917 46.1699C44.1216 45.8959 44.0887 45.6306 44.0273 45.3369C43.7164 47.4105 43.9696 49.5295 44.7602 51.4715C45.5509 53.4135 46.8499 55.1067 48.5208 56.3734C48.5997 56.3734 48.6808 56.3734 48.7532 56.3734C48.683 56.301 48.5931 56.301 48.5208 56.2155Z" fill="#3989B4"/>
<path d="M62.6454 55.7726V55.7463C62.6224 55.8326 62.5805 55.9128 62.5227 55.9809C62.4645 56.0318 62.4245 56.1003 62.4087 56.176C62.3966 56.2193 62.3781 56.2607 62.3539 56.2987C62.3294 56.3295 62.3067 56.3617 62.286 56.3952C62.2334 56.4346 62.1566 56.4456 62.1062 56.4938C62.0273 56.5749 62.0427 56.6078 61.9265 56.6604C61.8479 56.7058 61.764 56.7412 61.6766 56.7656C61.4574 56.7985 61.4859 56.5179 61.293 56.5464C61.2645 56.6078 61.1856 56.61 61.1264 56.6406C61.0672 56.5398 60.9905 56.5859 60.9072 56.6034C60.8698 56.6839 60.8159 56.7557 60.7491 56.8142C60.6823 56.8727 60.604 56.9166 60.5193 56.9431C60.3834 56.9738 60.4053 56.9234 60.2825 56.9037C60.2305 56.9028 60.1789 56.9133 60.1313 56.9344C60.0743 56.9738 60.0918 57.0111 60.048 57.044C60.0042 57.0769 59.8924 57.0988 59.8134 57.1492C59.7409 57.2142 59.6607 57.2702 59.5745 57.3158C59.4518 57.3596 59.3378 57.353 59.2194 57.4056C59.1105 57.4311 59.0042 57.4663 58.9016 57.5109C58.8595 57.4766 58.8068 57.458 58.7525 57.4582C58.7525 57.4824 58.7525 57.5152 58.7525 57.5372C58.678 57.5372 58.6451 57.5985 58.5882 57.638C58.5312 57.6774 58.5224 57.6489 58.4873 57.6752C58.4589 57.6966 58.4369 57.7254 58.4238 57.7585C58.5114 57.7761 58.4742 57.809 58.461 57.8681C58.461 57.8681 58.3733 57.9953 58.3777 57.9931C58.2857 58.0588 58.0643 58.0457 58.0182 57.9295C57.9634 57.9843 57.8582 57.9975 57.8254 58.0632C57.7538 58.0323 57.6806 58.0052 57.6062 57.9821C57.4725 57.9602 57.444 58.0282 57.3453 58.0632C57.1875 58.118 57.0253 58.0128 56.8762 58.0501C56.8762 57.9251 56.7425 57.9427 56.7623 58.0632C56.7001 58.0544 56.6368 58.0644 56.5803 58.0917C56.5493 58.074 56.5141 58.0647 56.4784 58.0647C56.4427 58.0647 56.4075 58.074 56.3765 58.0917C56.2362 57.9536 55.8351 58.2671 55.7189 58.3657C55.6926 58.3876 55.6926 58.4424 55.6641 58.4687C55.6356 58.495 55.5961 58.4972 55.5677 58.5235C55.5392 58.5498 55.4822 58.6068 55.4339 58.6463C55.3857 58.6857 55.3572 58.7077 55.3134 58.7383C57.8827 58.8036 60.4012 58.015 62.4745 56.496L62.5337 56.4521C62.5367 56.3894 62.5455 56.327 62.56 56.2658C62.5753 56.2154 62.7529 56.0905 62.5906 56.0839C62.6718 56.0247 62.6191 55.994 62.6323 55.9348C62.6454 55.8757 62.6739 55.834 62.6454 55.7726Z" fill="#3989B4"/>
<path d="M50.9321 37.8886C50.9321 37.8886 51.2061 37.7614 51.2236 37.7483C51.3135 37.6781 51.2477 37.5291 51.4253 37.5576C51.5261 37.3778 51.6313 37.277 51.7234 37.1082C51.7738 37.1082 51.7891 37.0644 51.8242 37.0425L51.9272 36.9395C51.7653 37.0412 51.5916 37.1229 51.4099 37.1828C51.3179 37.2047 51.2499 37.1828 51.1622 37.2091C50.9562 37.2639 51.057 37.2748 50.9737 37.4151C50.9321 37.5006 50.6537 37.8513 50.9321 37.8886Z" fill="#3989B4"/>
<g style="mix-blend-mode:overlay" opacity="0.4">
<path d="M51.4494 36.1549C49.6848 37.0668 48.3477 38.4981 47.7713 40.3328C46.4123 44.6575 49.7791 49.5696 55.2918 51.2925C60.2741 52.8597 65.3046 51.2925 67.2292 47.7854C67.3502 45.8389 66.9814 43.893 66.1566 42.1258C65.3318 40.3585 64.0772 38.8261 62.5075 37.6687C60.9378 36.5112 59.103 35.7657 57.1709 35.5001C55.2388 35.2345 53.2709 35.4574 51.4472 36.1483L51.4494 36.1549Z" fill="#E9F8FF"/>
</g>
</g>
</g>
<defs>
<radialGradient id="paint0_radial_161_15418" cx="0" cy="0" r="1" gradientUnits="userSpaceOnUse" gradientTransform="translate(56.8675 53.7366) scale(0.0264079 0.0264028)">
<stop stop-color="white"/>
<stop offset="0.21" stop-color="#E9E9F3"/>
<stop offset="1" stop-color="#9997C6"/>
</radialGradient>
<clipPath id="clip0_161_15418">
<rect width="70" height="70" rx="16" fill="white"/>
</clipPath>
<clipPath id="clip1_161_15418">
<rect width="95" height="95" fill="white" transform="translate(-12 -9)"/>
</clipPath>
</defs>
</svg>
