<svg width="24" height="24" viewBox="0 0 24 24" fill="none" xmlns="http://www.w3.org/2000/svg">
<g clip-path="url(#clip0_161_16719)">
<path d="M21.8437 11.8594C21.8437 12.4219 21.84 12.9441 21.833 13.433C21.802 15.4636 21.7073 16.9312 21.5517 18.442C21.4186 19.7219 20.8492 20.9171 19.939 21.8267C19.0289 22.7364 17.8334 23.3051 16.5534 23.4375L16.5145 23.4417C14.9578 23.6039 14.708 23.7319 11.4253 23.7319H11.1441C7.86281 23.7319 7.61202 23.6034 6.05531 23.4417L6.0164 23.4375C4.73751 23.3041 3.54334 22.7351 2.63403 21.826C1.72472 20.9168 1.15554 19.7228 1.02187 18.4439C0.826868 16.5689 0.727493 14.7609 0.727493 11.8608C0.727493 8.96062 0.826868 7.15219 1.02187 5.27719C1.13226 4.21185 1.54591 3.20054 2.21375 2.36321C2.88158 1.52588 3.77558 0.897678 4.78968 0.553125V0.574219C5.19641 0.432555 5.61809 0.338184 6.0464 0.292969L6.08531 0.289219C7.64062 0.126563 8.17171 0 11.4544 0C14.737 0 14.9869 0.126562 16.5436 0.28875L16.5825 0.2925C16.9905 0.335694 17.3926 0.423404 17.7816 0.554062C17.8341 0.571875 17.8861 0.590625 17.9381 0.610313C18.922 0.971269 19.7848 1.60121 20.4283 2.42843C21.0718 3.25564 21.4701 4.2469 21.578 5.28937C21.578 5.28937 21.8437 8.11359 21.8437 11.8594Z" fill="#009593"/>
<path d="M6.04687 0.2925C5.61856 0.337715 5.19688 0.432086 4.79015 0.57375V0.553125C3.77596 0.897604 2.88186 1.52577 2.21394 2.36311C1.54602 3.20044 1.1323 4.2118 1.02187 5.27719C0.826868 7.15219 0.727493 8.96016 0.727493 11.8608C0.727493 14.4614 0.807181 16.1841 0.964681 17.8636C2.45425 18.4327 4.03559 18.7236 5.63015 18.7219C12.8437 18.7219 18.6919 12.8737 18.6919 5.65969C18.6941 3.88827 18.3349 2.13502 17.6362 0.507187C17.2927 0.402007 16.9398 0.330114 16.5825 0.2925L16.5436 0.28875C14.9869 0.126562 14.737 0 11.4544 0C8.17171 0 7.64062 0.126562 6.08531 0.28875L6.04687 0.2925Z" fill="#25A5A5"/>
<path d="M6.17015 6.2395H16.4011C16.6933 6.24549 16.9716 6.36578 17.1761 6.57457C17.3807 6.78336 17.4952 7.06401 17.4952 7.3563C17.4952 7.64859 17.3807 7.92924 17.1761 8.13803C16.9716 8.34682 16.6933 8.46711 16.4011 8.4731H6.17015C5.87792 8.46711 5.59968 8.34682 5.39513 8.13803C5.19057 7.92924 5.076 7.64859 5.076 7.3563C5.076 7.06401 5.19057 6.78336 5.39513 6.57457C5.59968 6.36578 5.87792 6.24549 6.17015 6.2395ZM6.17015 13.2511C5.87792 13.2451 5.59968 13.1248 5.39513 12.916C5.19057 12.7072 5.076 12.4266 5.076 12.1343C5.076 11.842 5.19057 11.5613 5.39513 11.3525C5.59968 11.1438 5.87792 11.0235 6.17015 11.0175H12.0042C12.1528 11.0144 12.3005 11.0411 12.4387 11.0958C12.5768 11.1506 12.7027 11.2324 12.8088 11.3364C12.915 11.4404 12.9993 11.5645 13.0569 11.7015C13.1145 11.8385 13.1441 11.9857 13.1441 12.1343C13.1441 12.2829 13.1145 12.43 13.0569 12.567C12.9993 12.704 12.915 12.8282 12.8088 12.9322C12.7027 13.0362 12.5768 13.118 12.4387 13.1727C12.3005 13.2275 12.1528 13.2541 12.0042 13.2511H6.17015Z" fill="white"/>
<path d="M17.8987 13.251C16.8359 13.251 15.797 13.5661 14.9133 14.1566C14.0295 14.7471 13.3408 15.5864 12.934 16.5683C12.5273 17.5502 12.4209 18.6307 12.6283 19.6731C12.8356 20.7155 13.3474 21.673 14.0989 22.4245C14.8505 23.1761 15.808 23.6879 16.8504 23.8952C17.8928 24.1026 18.9733 23.9962 19.9552 23.5894C20.9371 23.1827 21.7764 22.4939 22.3669 21.6102C22.9573 20.7265 23.2725 19.6876 23.2725 18.6247C23.2725 17.1995 22.7063 15.8327 21.6986 14.8249C20.6908 13.8171 19.324 13.251 17.8987 13.251Z" fill="#FFC535"/>
<path d="M20.0283 19.411H17.7919C17.7079 19.411 17.6247 19.3945 17.5471 19.3624C17.4695 19.3303 17.399 19.2832 17.3396 19.2238C17.2802 19.1644 17.2331 19.0939 17.201 19.0163C17.1689 18.9387 17.1524 18.8556 17.1525 18.7716V15.3352C17.1525 15.1656 17.2199 15.003 17.3398 14.8831C17.4597 14.7632 17.6223 14.6958 17.7919 14.6958C17.9614 14.6958 18.1241 14.7632 18.244 14.8831C18.3639 15.003 18.4312 15.1656 18.4312 15.3352V18.1322H20.0283C20.1122 18.1322 20.1954 18.1487 20.273 18.1809C20.3505 18.213 20.421 18.2601 20.4804 18.3195C20.5398 18.3788 20.5869 18.4493 20.619 18.5269C20.6511 18.6045 20.6677 18.6876 20.6677 18.7716C20.6677 18.8555 20.6511 18.9387 20.619 19.0163C20.5869 19.0938 20.5398 19.1643 20.4804 19.2237C20.421 19.2831 20.3505 19.3302 20.273 19.3623C20.1954 19.3944 20.1122 19.411 20.0283 19.411Z" fill="white"/>
</g>
<defs>
<clipPath id="clip0_161_16719">
<rect width="24" height="24" fill="white"/>
</clipPath>
</defs>
</svg>
