<svg width="24" height="24" viewBox="0 0 24 24" fill="none" xmlns="http://www.w3.org/2000/svg">
<path d="M21.8437 11.8594C21.8437 12.4219 21.84 12.9441 21.8329 13.433C21.802 15.4636 21.7073 16.9312 21.5517 18.442C21.4186 19.7219 20.8492 20.9171 19.939 21.8267C19.0289 22.7364 17.8334 23.3051 16.5534 23.4375L16.5145 23.4417C14.9578 23.6039 14.7079 23.7319 11.4253 23.7319H11.144C7.86279 23.7319 7.61201 23.6034 6.05529 23.4417L6.01638 23.4375C4.73749 23.3041 3.54332 22.7351 2.63402 21.826C1.72471 20.9168 1.15552 19.7228 1.02185 18.4439C0.826853 16.5689 0.727478 14.7609 0.727478 11.8608C0.727478 8.96062 0.826853 7.15219 1.02185 5.27719C1.13225 4.21185 1.54589 3.20054 2.21373 2.36321C2.88157 1.52588 3.77556 0.897678 4.78967 0.553125V0.574219C5.19639 0.432555 5.61807 0.338184 6.04638 0.292969L6.08529 0.289219C7.6406 0.126563 8.1717 0 11.4544 0C14.737 0 14.9869 0.126562 16.5436 0.28875L16.5825 0.2925C16.9905 0.335694 17.3926 0.423404 17.7815 0.554062C17.834 0.571875 17.8861 0.590625 17.9381 0.610313C18.922 0.971269 19.7848 1.60121 20.4283 2.42843C21.0718 3.25564 21.4701 4.2469 21.5779 5.28937C21.5779 5.28937 21.8437 8.11359 21.8437 11.8594Z" fill="#009593"/>
<path d="M6.04685 0.2925C5.61854 0.337715 5.19686 0.432086 4.79013 0.57375V0.553125C3.77594 0.897604 2.88185 1.52577 2.21393 2.36311C1.546 3.20044 1.13228 4.2118 1.02185 5.27719C0.826853 7.15219 0.727478 8.96016 0.727478 11.8608C0.727478 14.4614 0.807166 16.1841 0.964666 17.8636C2.45423 18.4327 4.03557 18.7236 5.63013 18.7219C12.8437 18.7219 18.6919 12.8737 18.6919 5.65969C18.6941 3.88827 18.3349 2.13502 17.6362 0.507187C17.2927 0.402007 16.9398 0.330114 16.5825 0.2925L16.5436 0.28875C14.9869 0.126562 14.737 0 11.4544 0C8.1717 0 7.6406 0.126562 6.08529 0.28875L6.04685 0.2925Z" fill="#25A5A5"/>
<path d="M6.17014 6.2395H16.4011C16.6933 6.24549 16.9716 6.36578 17.1761 6.57457C17.3807 6.78336 17.4952 7.06401 17.4952 7.3563C17.4952 7.64859 17.3807 7.92924 17.1761 8.13803C16.9716 8.34682 16.6933 8.46711 16.4011 8.4731H6.17014C5.87791 8.46711 5.59967 8.34682 5.39511 8.13803C5.19056 7.92924 5.07599 7.64859 5.07599 7.3563C5.07599 7.06401 5.19056 6.78336 5.39511 6.57457C5.59967 6.36578 5.87791 6.24549 6.17014 6.2395ZM6.17014 13.2511C5.87791 13.2451 5.59967 13.1248 5.39511 12.916C5.19056 12.7072 5.07599 12.4266 5.07599 12.1343C5.07599 11.842 5.19056 11.5613 5.39511 11.3525C5.59967 11.1438 5.87791 11.0235 6.17014 11.0175H12.0042C12.1528 11.0144 12.3005 11.0411 12.4386 11.0958C12.5768 11.1506 12.7027 11.2324 12.8088 11.3364C12.915 11.4404 12.9993 11.5645 13.0569 11.7015C13.1145 11.8385 13.1441 11.9857 13.1441 12.1343C13.1441 12.2829 13.1145 12.43 13.0569 12.567C12.9993 12.704 12.915 12.8282 12.8088 12.9322C12.7027 13.0362 12.5768 13.118 12.4386 13.1727C12.3005 13.2275 12.1528 13.2541 12.0042 13.2511H6.17014Z" fill="white"/>
<path d="M17.8987 13.251C16.8359 13.251 15.7969 13.5661 14.9132 14.1566C14.0295 14.7471 13.3407 15.5864 12.934 16.5683C12.5273 17.5502 12.4209 18.6307 12.6282 19.6731C12.8356 20.7155 13.3474 21.673 14.0989 22.4245C14.8504 23.1761 15.8079 23.6879 16.8504 23.8952C17.8928 24.1026 18.9732 23.9962 19.9552 23.5894C20.9371 23.1827 21.7764 22.4939 22.3668 21.6102C22.9573 20.7265 23.2725 19.6876 23.2725 18.6247C23.2725 17.1995 22.7063 15.8327 21.6985 14.8249C20.6908 13.8171 19.3239 13.251 17.8987 13.251Z" fill="#FFC535"/>
<path d="M20.0282 19.411H17.7918C17.7079 19.411 17.6247 19.3945 17.5471 19.3624C17.4695 19.3303 17.399 19.2832 17.3396 19.2238C17.2802 19.1644 17.2331 19.0939 17.201 19.0163C17.1689 18.9387 17.1524 18.8556 17.1525 18.7716V15.3352C17.1525 15.1656 17.2198 15.003 17.3397 14.8831C17.4596 14.7632 17.6223 14.6958 17.7918 14.6958C17.9614 14.6958 18.124 14.7632 18.2439 14.8831C18.3639 15.003 18.4312 15.1656 18.4312 15.3352V18.1322H20.0282C20.1122 18.1322 20.1954 18.1487 20.2729 18.1809C20.3505 18.213 20.421 18.2601 20.4804 18.3195C20.5397 18.3788 20.5868 18.4493 20.619 18.5269C20.6511 18.6045 20.6676 18.6876 20.6676 18.7716C20.6676 18.8555 20.6511 18.9387 20.619 19.0163C20.5868 19.0938 20.5397 19.1643 20.4804 19.2237C20.421 19.2831 20.3505 19.3302 20.2729 19.3623C20.1954 19.3944 20.1122 19.411 20.0282 19.411Z" fill="white"/>
</svg>
