<svg width="24" height="24" viewBox="0 0 24 24" fill="none" xmlns="http://www.w3.org/2000/svg">
<path d="M23.3466 3.38754C23.2181 2.59067 22.4292 1.8641 21.6422 1.80879C16.9645 1.51442 14.4375 3.1977 13.0552 4.53645C12.7734 4.82271 12.6167 5.20914 12.6197 5.61082C12.6472 10.9008 12.6391 16.1907 12.5953 21.4804C12.5925 22.1005 13.2413 22.4464 13.7081 22.0616C15.2109 20.8054 17.8552 19.5177 22.1606 18.9566C22.928 18.8497 23.6138 18.1789 23.693 17.4435C24.1964 12.7633 24.0799 8.03721 23.3466 3.38754Z" fill="#009593"/>
<path d="M1.83703 18.9561C6.1425 19.5186 8.78672 20.8025 10.2895 22.0616C10.7541 22.4493 11.4047 22.1029 11.4023 21.4804C11.3583 16.1913 11.3502 10.9014 11.378 5.61082C11.3799 5.41187 11.3424 5.2145 11.2676 5.0301C11.1929 4.84571 11.0824 4.67793 10.9425 4.53645C9.5625 3.1977 7.03359 1.51442 2.35781 1.80879C1.57125 1.86176 0.782345 2.5902 0.653439 3.38754C-0.0799046 8.038 -0.196379 12.7649 0.307032 17.4458C0.387657 18.1789 1.07203 18.8521 1.83703 18.9561Z" fill="#009593"/>
</svg>
