<svg width="24" height="24" viewBox="0 0 24 24" fill="none" xmlns="http://www.w3.org/2000/svg">
<g clip-path="url(#clip0_151_14169)">
<path d="M22.5328 8.76553C20.8176 8.49647 19.6116 6.90929 19.8033 5.22694C19.8293 4.99902 19.881 4.77478 19.9575 4.5585C20.1562 3.98757 19.9523 3.32803 19.4616 2.9146C18.4243 2.01944 17.2483 1.29908 15.9797 0.781785C15.703 0.665151 15.3953 0.644093 15.1053 0.721943C14.8153 0.799793 14.5595 0.972106 14.3784 1.21163C13.3744 2.55366 11.4398 2.78897 10.1334 1.74132C9.94131 1.58687 9.76934 1.40891 9.62155 1.21163C9.44047 0.972106 9.18469 0.799793 8.89469 0.721943C8.60468 0.644093 8.297 0.665151 8.0203 0.781785C6.8501 1.25809 5.7582 1.9077 4.78124 2.70882C4.26562 3.12694 4.05187 3.81225 4.26093 4.40241C4.84546 5.95257 4.05608 7.77038 2.45249 8.43366C2.16678 8.55286 1.86542 8.63037 1.55765 8.66382C0.911709 8.74397 0.375928 9.22163 0.245146 9.83803C-0.0488134 11.1414 -0.075126 12.4908 0.167803 13.8046C0.28124 14.4412 0.824053 14.9408 1.48968 15.0233C3.2053 15.2052 4.48124 16.7221 4.37155 18.4101C4.35035 18.7492 4.27107 19.0822 4.13718 19.3944C3.88358 19.9808 4.08046 20.6919 4.60593 21.1241C5.63617 22.0037 6.8006 22.7127 8.05499 23.2241C8.21075 23.2839 8.37531 23.3174 8.54202 23.3235C8.76794 23.3279 8.99131 23.2751 9.19136 23.1701C9.39141 23.065 9.56164 22.9111 9.68624 22.7226C9.95328 22.3215 10.3137 21.9912 10.7365 21.7601C11.1593 21.5289 11.6319 21.4039 12.1137 21.3956C12.5955 21.3874 13.0721 21.4962 13.5025 21.7127C13.933 21.9292 14.3045 22.2469 14.5851 22.6387C14.7654 22.8949 15.0294 23.0802 15.3317 23.1625C15.634 23.2448 15.9555 23.219 16.2408 23.0896C17.3871 22.5812 18.4534 21.9089 19.4062 21.0937C19.9059 20.6718 20.1094 19.9963 19.8951 19.4179C19.2928 17.8743 20.0625 16.0494 21.6562 15.3712C21.9256 15.2553 22.2094 15.1765 22.5 15.1368C23.1384 15.0388 23.6564 14.5546 23.7745 13.9419C23.9131 13.3016 23.9886 12.6493 24 11.9943C23.9998 11.303 23.9274 10.6136 23.7839 9.93741C23.6639 9.33788 23.1572 8.86491 22.5328 8.76553ZM15.9998 11.9943C15.9998 14.1899 14.1942 15.9923 12 15.9941C9.80577 15.996 8.00202 14.1899 8.00015 11.9943C7.99827 9.79866 9.80577 7.99585 12 7.99397C14.1942 7.9921 15.998 9.79678 15.9998 11.9943Z" fill="#009593"/>
</g>
<defs>
<clipPath id="clip0_151_14169">
<rect width="24" height="24" fill="white"/>
</clipPath>
</defs>
</svg>
