<svg width="24" height="24" viewBox="0 0 24 24" fill="none" xmlns="http://www.w3.org/2000/svg">
<path d="M22.8947 17.8073C22.9069 17.5839 22.9156 17.3602 22.9209 17.1361C22.9388 16.4606 22.3767 15.9516 21.6155 15.923C21.3253 15.9127 20.8753 15.9122 20.303 15.9164C20.5547 12.7711 20.2017 7.17797 19.7995 5.51016C19.545 4.25578 18.8152 3.02906 17.8275 2.055C16.8399 1.08094 15.6417 0.414375 14.4305 0.229219L14.393 0.223594C12.915 0 12.4219 0.00375 12.0567 0C11.4117 0.00421875 11.085 0 9.6061 0.22125L9.5686 0.226875C8.35735 0.414375 7.16297 1.08 6.17157 2.055C5.18016 3.03 4.45313 4.25344 4.19954 5.50781C3.79735 7.1775 3.44438 12.7734 3.6961 15.9164C3.12469 15.9122 2.67469 15.9127 2.3836 15.923C1.62282 15.952 1.05985 16.4606 1.07813 17.1366C1.08313 17.3603 1.09204 17.5839 1.10485 17.8073C1.13485 18.345 1.67297 18.8517 2.26547 18.9075C8.74095 19.5014 15.2572 19.5014 21.7327 18.9075C22.3261 18.8517 22.8642 18.345 22.8947 17.8073Z" fill="#C1C1CC"/>
<path d="M12 24C10.3749 24 8.93392 22.4827 8.82517 20.7216C8.8219 20.6823 8.82708 20.6428 8.84036 20.6057C8.85364 20.5686 8.87471 20.5347 8.90215 20.5065C8.9296 20.4782 8.96278 20.4561 8.99947 20.4417C9.03615 20.4273 9.0755 20.4209 9.11486 20.423C11.0395 20.4855 12.963 20.4855 14.8852 20.423C14.9245 20.4209 14.9639 20.4273 15.0006 20.4417C15.0372 20.4561 15.0704 20.4782 15.0979 20.5065C15.1253 20.5347 15.1464 20.5686 15.1597 20.6057C15.1729 20.6428 15.1781 20.6823 15.1749 20.7216C15.0661 22.4827 13.6252 24 12 24Z" fill="#C1C1CC"/>
</svg>
