<svg width="40" height="40" viewBox="0 0 40 40" fill="none" xmlns="http://www.w3.org/2000/svg">
<g clip-path="url(#clip0_151_14062)">
<path d="M3.89788 36.0028L0.070299 14.2718C0.0333403 14.0621 0.0103015 13.8501 0.00133348 13.6373C-0.0555499 11.1736 1.71352 9.0454 4.14616 8.6511L11.5324 7.34766L11.3324 36.0028H3.89788Z" fill="#4DB5B6"/>
<path d="M32.325 35.0503C32.1969 35.582 31.7668 35.9878 31.2285 36.0847L9.49054 39.9192C8.12039 40.1584 6.71359 39.796 5.62957 38.9245C4.54554 38.0531 3.88929 36.757 3.82847 35.3675C3.77415 33.0119 5.3959 30.9479 7.69744 30.4434L13.7871 32.1537H13.7802L8.29744 33.1261C7.68595 33.2336 7.15486 33.6096 6.85029 34.1506C6.54572 34.6916 6.49974 35.3407 6.72502 35.9192C7.11511 36.851 8.10582 37.381 9.09744 37.1882L25.7112 34.2572L32.325 35.0503Z" fill="#009593"/>
<path d="M13.7806 32.1541L8.29789 33.1265C7.6864 33.2339 7.15531 33.6099 6.85074 34.1509C6.54616 34.692 6.50019 35.341 6.72547 35.9196C7.11556 36.8514 8.10627 37.3813 9.09789 37.1885L25.7117 34.2575L13.7806 32.1541Z" fill="#FFE39D"/>
<path d="M8.79883 22.8721L12.6312 1.13831C12.7684 0.391246 13.4803 -0.107073 14.2292 0.019692L35.7995 3.82314C38.2339 4.21774 40.0044 6.34728 39.9478 8.8128C39.9384 9.02463 39.9154 9.23565 39.8788 9.44452L36.0464 31.1783L8.79883 22.8721Z" fill="#FFD56B"/>
<path d="M31.2891 7.21885C31.2487 7.21883 31.2083 7.21537 31.1685 7.20851L15.5471 4.45402C15.1945 4.36708 14.9698 4.02169 15.0331 3.66416C15.0964 3.30664 15.4261 3.05944 15.7871 3.09885L31.4078 5.84989C31.7601 5.9116 32.0067 6.2324 31.9758 6.58873C31.945 6.94506 31.6468 7.21865 31.2891 7.21885Z" fill="#ECF0F1"/>
<path d="M27.9733 10.1334C27.9328 10.1334 27.8924 10.1297 27.8526 10.1223L17.665 8.32853C17.2985 8.2542 17.058 7.90126 17.1229 7.53294C17.1878 7.16462 17.5344 6.91515 17.9043 6.9706L28.0926 8.7637C28.4469 8.82358 28.6959 9.14554 28.6647 9.50356C28.6335 9.86159 28.3326 10.1356 27.9733 10.1334Z" fill="#ECF0F1"/>
<path d="M29.4136 13.2142L15.1481 10.6942C14.7729 10.6279 14.415 10.8784 14.3487 11.2535L13.1487 18.0466C13.0825 18.4218 13.3329 18.7797 13.7081 18.8459L27.9736 21.3659C28.3487 21.4322 28.7066 21.1818 28.7729 20.8066L29.9729 14.0135C30.0392 13.6384 29.7887 13.2805 29.4136 13.2142Z" fill="#ECF0F1"/>
<path d="M39.9462 8.80926C39.938 9.0221 39.9149 9.23411 39.8772 9.44374L36.0427 31.1748L30.7255 29.5541L33.8082 12.0782L34.5393 7.95409L35.2841 3.7334L35.8013 3.82305C38.2329 4.21929 40.0009 6.34627 39.9462 8.80926Z" fill="#FFC73A"/>
<path d="M31.9669 25.5541L10.3944 21.7541C10.3147 21.7404 10.234 21.7334 10.1531 21.7334C9.43825 21.7352 8.84327 22.2828 8.78227 22.995C8.72128 23.7072 9.21449 24.348 9.91857 24.4713L31.6496 28.2989C32.2606 28.4096 32.79 28.7876 33.093 29.3295C33.396 29.8715 33.4408 30.5205 33.2151 31.0989C32.8272 32.0287 31.8379 32.5565 30.8496 32.361L9.20133 28.5472C9.1216 28.5335 9.04085 28.5265 8.95995 28.5265C8.24383 28.5247 7.64547 29.0713 7.58257 29.7847C7.51968 30.498 8.01318 31.1409 8.71857 31.2644L30.4565 35.092C31.8257 35.332 33.2319 34.9709 34.3159 34.1007C35.3999 33.2306 36.0567 31.9358 36.1186 30.5472C36.1727 28.0806 34.4019 25.9509 31.9669 25.5541Z" fill="#FFB909"/>
<path d="M33.215 31.0993C32.827 32.029 31.8378 32.5568 30.8494 32.3613L9.20117 28.5475L9.91841 24.4717L31.6494 28.2993C32.2604 28.4099 32.7899 28.7879 33.0929 29.3299C33.3959 29.8718 33.4407 30.5208 33.215 31.0993Z" fill="#FFE39D"/>
</g>
<defs>
<clipPath id="clip0_151_14062">
<rect width="40" height="40" fill="white"/>
</clipPath>
</defs>
</svg>
