<svg width="24" height="24" viewBox="0 0 24 24" fill="none" xmlns="http://www.w3.org/2000/svg">
<g clip-path="url(#clip0_151_14162)">
<path d="M22.8638 10.8571C22.9648 10.8627 23.0661 10.8538 23.1647 10.8308C23.6583 10.709 24.0019 10.3063 24 9.79958C23.9937 9.2953 23.9568 8.79187 23.8894 8.29208C23.8279 7.78228 23.738 7.27633 23.6198 6.77661C23.4727 6.18083 22.9167 5.66099 22.3191 5.54989C22.1405 5.51755 19.7944 5.27146 17.3808 5.14771C17.7231 4.82861 17.9853 4.43322 18.146 3.99371C18.3067 3.55419 18.3614 3.08295 18.3057 2.6183C18.2499 2.15365 18.0853 1.70872 17.8252 1.31968C17.5651 0.930639 17.2169 0.608478 16.8088 0.379392C16.4007 0.150306 15.9444 0.0207627 15.4768 0.00129716C15.0092 -0.0181684 14.5436 0.0729929 14.1179 0.267368C13.6922 0.461743 13.3184 0.753844 13.0269 1.11992C12.7353 1.48599 12.5343 1.91571 12.4402 2.37411L11.9902 4.90536L11.5439 2.39052L11.5406 2.37317C11.4471 1.91381 11.2464 1.48305 10.9548 1.11598C10.6632 0.748916 10.289 0.455937 9.8627 0.260918C9.43641 0.0658998 8.97007 -0.0256395 8.50168 -0.00623976C8.0333 0.0131599 7.57612 0.14295 7.16741 0.372553C6.75871 0.602155 6.41003 0.925075 6.14979 1.315C5.88956 1.70492 5.72513 2.15081 5.66991 2.61633C5.61469 3.08185 5.67024 3.55384 5.83204 3.99382C5.99383 4.4338 6.25729 4.82933 6.60094 5.14817C4.19391 5.27239 1.85906 5.51708 1.67906 5.54942C1.08 5.66052 0.525469 6.18036 0.378281 6.77614C0.260166 7.27586 0.170181 7.78181 0.10875 8.29161C0.0419164 8.79175 0.00559917 9.2955 0 9.80005C0 10.3077 0.344063 10.7113 0.840469 10.8313C0.934916 10.8532 1.03191 10.862 1.12875 10.8575C1.9725 10.8275 7.53656 10.6386 12.7069 10.6386C17.7942 10.6405 22.1086 10.8229 22.8638 10.8571ZM15.3553 1.32599C15.7629 1.32614 16.1559 1.47738 16.4584 1.75046C16.7609 2.02354 16.9515 2.39907 16.9932 2.80447C17.0349 3.20987 16.9249 3.61635 16.6844 3.94534C16.4439 4.27433 16.0899 4.50248 15.6909 4.58567L13.3209 5.00755L13.7428 2.63474C13.8215 2.26512 14.0244 1.93362 14.3178 1.69548C14.6113 1.45733 14.9774 1.32693 15.3553 1.32599ZM8.625 1.32599C9.00273 1.3266 9.36886 1.45657 9.66242 1.69427C9.95598 1.93197 10.1593 2.26305 10.2384 2.63239L10.6603 5.00521L8.28984 4.58333C7.89334 4.49786 7.54231 4.26909 7.30401 3.94086C7.06571 3.61263 6.9569 3.20802 6.99841 2.80454C7.03993 2.40106 7.22886 2.02708 7.529 1.75425C7.82914 1.48142 8.2194 1.32893 8.625 1.32599Z" fill="#C1C1CC"/>
<path d="M9.3239 14.8921C9.22521 14.8931 9.12784 14.9149 9.03811 14.956C8.94839 14.9971 8.86832 15.0566 8.80312 15.1307C8.65766 15.2893 8.57731 15.4968 8.57812 15.712C8.57109 15.9632 8.6339 16.1606 8.76562 16.3115C8.83188 16.3827 8.91238 16.4392 9.0019 16.4773C9.09142 16.5154 9.18795 16.5342 9.28522 16.5325C9.38248 16.5308 9.47831 16.5087 9.56646 16.4675C9.65461 16.4264 9.73312 16.3672 9.79687 16.2937C9.93468 16.1362 10.005 15.9346 10.0102 15.6899C10.0148 15.4556 9.9525 15.2615 9.82265 15.1106C9.76215 15.038 9.68559 14.9805 9.59903 14.9425C9.51247 14.9046 9.41828 14.8874 9.3239 14.8921Z" fill="#C1C1CC"/>
<path d="M14.7019 19.2216C14.6042 19.2197 14.5073 19.2395 14.4181 19.2796C14.329 19.3196 14.2498 19.3789 14.1863 19.4531C14.0484 19.6055 13.9781 19.8023 13.9786 20.0437C13.9786 20.3006 14.0466 20.5041 14.1811 20.6597C14.2447 20.7345 14.3243 20.7942 14.414 20.8342C14.5038 20.8742 14.6013 20.8935 14.6995 20.8908C14.7968 20.8922 14.8932 20.8714 14.9812 20.83C15.0693 20.7886 15.1467 20.7276 15.2077 20.6517C15.3427 20.4923 15.4116 20.2894 15.4125 20.0423C15.4215 19.8278 15.35 19.6176 15.2119 19.4531C15.149 19.3796 15.0707 19.3207 14.9826 19.2807C14.8945 19.2407 14.7986 19.2205 14.7019 19.2216Z" fill="#C1C1CC"/>
<path d="M1.90875 11.9929C1.90875 11.9929 6.80766 11.8523 12 11.8523C17.1923 11.8523 22.0913 11.9929 22.0913 11.9929C22.1719 11.9945 22.2492 12.0258 22.3083 12.0808C22.3673 12.1358 22.404 12.2107 22.4114 12.291C22.5072 13.3737 22.5439 14.4608 22.5216 15.5475C22.4841 17.5392 22.2966 18.9975 22.1048 20.0653C21.7716 21.8329 20.1755 23.3643 18.4355 23.6353C17.3794 23.8087 13.957 24.014 12 23.9962C10.043 24.014 6.62063 23.8087 5.56453 23.6353C3.82453 23.3643 2.22844 21.8329 1.89516 20.0653C1.70344 18.9975 1.51594 17.5392 1.47844 15.5475C1.45607 14.4608 1.49284 13.3737 1.58859 12.291C1.59596 12.2107 1.63268 12.1358 1.69174 12.0808C1.7508 12.0258 1.82806 11.9945 1.90875 11.9929Z" fill="#C1C1CC"/>
</g>
<defs>
<clipPath id="clip0_151_14162">
<rect width="24" height="24" fill="white"/>
</clipPath>
</defs>
</svg>
