<svg width="24" height="24" viewBox="0 0 24 24" fill="none" xmlns="http://www.w3.org/2000/svg">
<g clip-path="url(#clip0_161_16710)">
<path d="M12.0563 24.047C11.2388 24.047 10.4348 24.0287 9.66563 23.9949C8.08406 23.9265 6.61875 23.7934 5.18156 23.5876C4.83701 23.5379 4.52632 23.3533 4.31785 23.0745C4.10938 22.7957 4.0202 22.4455 4.06992 22.1009C4.11965 21.7564 4.30422 21.4457 4.58302 21.2372C4.86182 21.0288 5.21201 20.9396 5.55656 20.9893C6.90563 21.1824 8.2875 21.308 9.78094 21.3727C10.5159 21.4041 11.2809 21.4196 12.0605 21.422C12.8273 21.422 13.5863 21.4046 14.3138 21.3751C15.7828 21.3123 17.1427 21.1904 18.4702 21.0034C18.8149 20.9548 19.1648 21.0452 19.4429 21.2546C19.721 21.4641 19.9045 21.7754 19.953 22.1202C20.0016 22.4649 19.9112 22.8148 19.7018 23.0929C19.4923 23.371 19.181 23.5545 18.8363 23.603C17.4234 23.8018 15.9811 23.9312 14.4263 23.9977C13.6584 24.0263 12.8625 24.0437 12.0563 24.047Z" fill="#FFC535"/>
<path d="M23.5153 4.83422C23.0625 2.7961 21.0881 0.929068 19.0448 0.532505C17.7994 0.283599 14.3259 -0.0239008 12.0286 5.42501e-06C9.73172 -0.0253071 6.25781 0.281255 5.01281 0.531099C2.96906 0.927662 0.993283 2.79469 0.541876 4.83282C0.284533 6.07219 0.0328137 7.75501 0.028595 10.0538C0.032345 12.3506 0.285001 14.0348 0.54422 15.2728C0.995626 17.3109 2.97188 19.178 5.01516 19.5745C6.26063 19.8234 9.7336 20.1309 12.0309 20.1056C14.3278 20.1309 17.8017 19.8244 19.0472 19.5745C21.0909 19.178 23.0667 17.3109 23.5177 15.2728C23.775 14.0348 24.0272 12.352 24.0333 10.0538C24.0248 7.75547 23.7727 6.07219 23.5153 4.83422Z" fill="#009593"/>
<path d="M2.62734 18.4289C3.62717 18.6684 4.65175 18.789 5.67984 18.7884C12.8813 18.7884 18.7191 12.9506 18.7191 5.74969C18.7215 3.87454 18.3177 2.02111 17.5355 0.31688C15.9338 0.13688 13.6781 -0.0168696 12.0286 5.42501e-06C9.73172 -0.0253071 6.25781 0.281255 5.01281 0.531099C2.96906 0.927662 0.993283 2.79469 0.541876 4.83282C0.284533 6.07219 0.0328137 7.75501 0.028595 10.0538C0.032345 12.3506 0.285001 14.0348 0.54422 15.2728C0.807657 16.4723 1.60219 17.6128 2.62734 18.4289Z" fill="#25A5A5"/>
<path d="M15.8906 11.4585C14.0119 12.7499 11.7028 14.0559 9.99564 14.8593C9.03095 15.3637 7.62095 14.4932 7.54595 13.2707C7.38845 11.1278 7.38845 8.97625 7.54595 6.83335C7.62095 5.61039 9.03095 4.74039 9.99564 5.24476C11.7028 6.04961 14.0119 7.35414 15.8897 8.64695C16.1179 8.80347 16.3045 9.01319 16.4334 9.258C16.5624 9.50281 16.6297 9.77534 16.6297 10.052C16.6297 10.3287 16.5624 10.6012 16.4334 10.8461C16.3045 11.0909 16.1179 11.3006 15.8897 11.4571L15.8906 11.4585Z" fill="white"/>
</g>
<defs>
<clipPath id="clip0_161_16710">
<rect width="24" height="24" fill="white"/>
</clipPath>
</defs>
</svg>
